0
SECTION
2
HEADER
9
$INSUNITS
70
4
9
$ACADVER
1
AC1014
9
$HANDSEED
5
FFFF
0
ENDSEC
0
SECTION
2
TABLES
0
TABLE
2
VPORT
5
8
100
AcDbSymbolTable
0
ENDTAB
0
TABLE
2
LTYPE
5
5
100
AcDbSymbolTable
0
LTYPE
5
14
100
AcDbSymbolTableRecord
100
AcDbLinetypeTableRecord
2
BYBLOCK
70
0
0
LTYPE
5
15
100
AcDbSymbolTableRecord
100
AcDbLinetypeTableRecord
2
BYLAYER
70
0
0
ENDTAB
0
TABLE
2
LAYER
5
2
100
AcDbSymbolTable
70
2
0
LAYER
5
50
100
AcDbSymbolTableRecord
100
AcDbLayerTableRecord
2
0
70
0
6
CONTINUOUS
0
ENDTAB
0
TABLE
2
STYLE
5
3
100
AcDbSymbolTable
70
1
0
STYLE
5
11
100
AcDbSymbolTableRecord
100
AcDbTextStyleTableRecord
2
STANDARD
70
0
0
ENDTAB
0
TABLE
2
VIEW
5
6
100
AcDbSymbolTable
70
0
0
ENDTAB
0
TABLE
2
UCS
5
7
100
AcDbSymbolTable
70
0
0
ENDTAB
0
TABLE
2
APPID
5
9
100
AcDbSymbolTable
70
2
0
APPID
5
12
100
AcDbSymbolTableRecord
100
AcDbRegAppTableRecord
2
ACAD
70
0
0
ENDTAB
0
TABLE
2
DIMSTYLE
5
A
100
AcDbSymbolTable
70
1
0
ENDTAB
0
TABLE
2
BLOCK_RECORD
5
1
100
AcDbSymbolTable
70
1
0
BLOCK_RECORD
5
1F
100
AcDbSymbolTableRecord
100
AcDbBlockTableRecord
2
*MODEL_SPACE
0
BLOCK_RECORD
5
1B
100
AcDbSymbolTableRecord
100
AcDbBlockTableRecord
2
*PAPER_SPACE
0
ENDTAB
0
ENDSEC
0
SECTION
2
BLOCKS
0
BLOCK
5
20
100
AcDbEntity
100
AcDbBlockBegin
2
*MODEL_SPACE
0
ENDBLK
5
21
100
AcDbEntity
100
AcDbBlockEnd
0
BLOCK
5
1C
100
AcDbEntity
100
AcDbBlockBegin
2
*PAPER_SPACE
0
ENDBLK
5
1D
100
AcDbEntity
100
AcDbBlockEnd
0
ENDSEC
0
SECTION
2
ENTITIES
0
CIRCLE
5
100
100
AcDbEntity
8
0
100
AcDbCircle
10
-96.000000000001819
20
-16.701705922158268
30
0
40
1.5499999999999934
210
0
220
-0
230
1
0
LINE
5
101
100
AcDbEntity
8
0
100
AcDbLine
10
56.792070655080032
20
-6.3458412668367847
30
0
11
58.629153606472144
21
-5.4881784939588982
31
0
0
SPLINE
5
102
100
AcDbEntity
8
0
100
AcDbSpline
70
0
71
3
72
11
73
7
74
0
42
0.000000001
43
0.0000000001
44
0.0000000001
40
-1.5707963267949303
40
-1.5707963267949303
40
-1.5707963267949303
40
-1.5707963267949303
40
-0.62160526410325623
40
-0.62160526410325623
40
-0.62160526410325623
40
-0.53242277473877275
40
-0.53242277473877275
40
-0.53242277473877275
40
-0.53242277473877275
10
58.629153606472144
20
-5.4881784939588982
30
0
10
58.874636857740953
20
-5.3735718857930825
30
0
10
59.15009352609416
20
-5.299034311456456
30
0
10
59.525504669758334
20
-5.4025671661816199
30
0
10
59.560776915403167
20
-5.4122947311348941
30
0
10
59.596837721024791
20
-5.4239979862641814
30
0
10
59.633530511556941
20
-5.4380808129670566
30
0
0
LINE
5
103
100
AcDbEntity
8
0
100
AcDbLine
10
59.633530511556941
20
-5.4380808129670557
30
0
11
61.853573695204922
21
-6.2901414759689578
31
0
0
SPLINE
5
104
100
AcDbEntity
8
0
100
AcDbSpline
70
0
71
3
72
11
73
7
74
0
42
0.000000001
43
0.0000000001
44
0.0000000001
40
0.53242277473867228
40
0.53242277473867228
40
0.53242277473867228
40
0.53242277473867228
40
1.4816138374303045
40
1.4816138374303045
40
1.4816138374303045
40
1.5707963267948686
40
1.5707963267948686
40
1.5707963267948686
40
1.5707963267948686
10
61.853573695204922
20
-6.2901414759689578
30
0
10
62.244104045798707
20
-6.4400284474928293
30
0
10
62.415229867807994
20
-6.6858589918151559
30
0
10
62.534779418868503
20
-6.929833762925397
30
0
10
62.546011853501597
20
-6.9527567320566703
30
0
10
62.556586296361978
20
-6.9759211406317592
30
0
10
62.56652396844504
20
-6.9993555853854774
30
0
0
LINE
5
105
100
AcDbEntity
8
0
100
AcDbLine
10
62.56652396844504
20
-6.9993555853854774
30
0
11
63.358050746390958
21
-8.8658883501852586
31
0
0
SPLINE
5
106
100
AcDbEntity
8
0
100
AcDbSpline
70
0
71
3
72
8
73
4
74
0
42
0.000000001
43
0.0000000001
44
0.0000000001
40
-1.5707963267949006
40
-1.5707963267949006
40
-1.5707963267949006
40
-1.5707963267949006
40
-0.64195097067076023
40
-0.64195097067076023
40
-0.64195097067076023
40
-0.64195097067076023
10
63.358050746390958
20
-8.8658883501852586
30
0
10
63.470380656349718
20
-9.1307782607314785
30
0
10
63.515410647195473
20
-9.4402502344179702
30
0
10
63.380620848015738
20
-9.7914449179514378
30
0
0
LINE
5
107
100
AcDbEntity
8
0
100
AcDbLine
10
63.380620848015738
20
-9.7914449179514378
30
0
11
60.419259622980491
21
-17.507268552851816
31
0
0
SPLINE
5
108
100
AcDbEntity
8
0
100
AcDbSpline
70
0
71
3
72
8
73
4
74
0
42
0.000000001
43
0.0000000001
44
0.0000000001
40
-0.74377004690455739
40
-0.74377004690455739
40
-0.74377004690455739
40
-0.74377004690455739
40
-0.62617353933547459
40
-0.62617353933547459
40
-0.62617353933547459
40
-0.62617353933547459
10
60.419259622980491
20
-17.507268552851816
30
0
10
60.403259445518607
20
-17.548956998820284
30
0
10
60.384361720996068
20
-17.591276110810366
30
0
10
60.361957309644438
20
-17.633918528847889
30
0
0
ARC
5
109
100
AcDbEntity
8
0
100
AcDbCircle
10
59.371560972592221
20
-17.113562321164373
30
0
40
1.1187741002191824
210
0
220
0
230
1
100
AcDbArc
50
283.27187232709593
51
332.28247439795865
0
SPLINE
5
110
100
AcDbEntity
8
0
100
AcDbSpline
70
0
71
3
72
8
73
4
74
0
42
0.000000001
43
0.0000000001
44
0.0000000001
40
-0.46213448866129525
40
-0.46213448866129525
40
-0.46213448866129525
40
-0.46213448866129525
40
0
40
0
40
0
40
0
10
59.628400131128679
20
-18.202455857725003
30
0
10
59.429225733175137
20
-18.249435459545378
30
0
10
59.188655548850591
20
-18.242676388494207
30
0
10
58.970359090880763
20
-18.158893412523852
30
0
0
LINE
5
111
100
AcDbEntity
8
0
100
AcDbLine
10
58.970359090880763
20
-18.158893412523852
30
0
11
53.835563004456517
21
-16.188139965021563
31
0
0
SPLINE
5
112
100
AcDbEntity
8
0
100
AcDbSpline
70
0
71
3
72
8
73
4
74
0
42
0.000000001
43
0.0000000001
44
0.0000000001
40
0
40
0
40
0
40
0
40
0.46213448866134454
40
0.46213448866134454
40
0.46213448866134454
40
0.46213448866134454
10
53.835563004456517
20
-16.188139965021563
30
0
10
53.617266546486675
20
-16.104356989051198
30
0
10
53.433948941230263
20
-15.948426381951457
30
0
10
53.317351302640041
20
-15.780252321934613
30
0
0
ARC
5
113
100
AcDbEntity
8
0
100
AcDbCircle
10
54.236764886167933
20
-15.142808873662092
30
0
40
1.1187741002191618
210
0
220
0
230
1
100
AcDbArc
50
165.72355730136439
51
214.73415937223089
0
SPLINE
5
114
100
AcDbEntity
8
0
100
AcDbSpline
70
0
71
3
72
8
73
4
74
0
42
0.000000001
43
0.0000000001
44
0.0000000001
40
0.62617353933558306
40
0.62617353933558306
40
0.62617353933558306
40
0.62617353933558306
40
0.74377004690458581
40
0.74377004690458581
40
0.74377004690458581
40
0.74377004690458581
10
53.152541658530801
20
-14.866918533176408
30
0
10
53.164420368892863
20
-14.820236312746886
30
0
10
53.178688993750868
20
-14.776140535438653
30
0
10
53.194689171212744
20
-14.734452089470215
30
0
0
LINE
5
115
100
AcDbEntity
8
0
100
AcDbLine
10
53.194689171212744
20
-14.734452089470214
30
0
11
56.156050396247977
21
-7.018628454569904
31
0
0
SPLINE
5
116
100
AcDbEntity
8
0
100
AcDbSpline
70
0
71
3
72
8
73
4
74
0
42
0.000000001
43
0.0000000001
44
0.0000000001
40
0.64195097067073092
40
0.64195097067073092
40
0.64195097067073092
40
0.64195097067073092
40
1.5707963267948639
40
1.5707963267948639
40
1.5707963267948639
40
1.5707963267948639
10
56.156050396247977
20
-7.018628454569904
30
0
10
56.290840195427727
20
-6.6674337710364373
30
0
10
56.531360129212231
20
-6.4675568988744061
30
0
10
56.792070655079947
20
-6.3458412668368203
30
0
0
LINE
5
117
100
AcDbEntity
8
0
100
AcDbLine
10
8.8804567736443509
20
3.5773426967470234
30
0
11
10.386511610175749
21
4.9346407596782189
31
0
0
SPLINE
5
118
100
AcDbEntity
8
0
100
AcDbSpline
70
0
71
3
72
11
73
7
74
0
42
0.000000001
43
0.0000000001
44
0.0000000001
40
-1.5707963267949201
40
-1.5707963267949201
40
-1.5707963267949201
40
-1.5707963267949201
40
-0.62160526410325556
40
-0.62160526410325556
40
-0.62160526410325556
40
-0.53242277473874855
40
-0.53242277473874855
40
-0.53242277473874855
40
-0.53242277473874855
10
10.386511610175749
20
4.9346407596782189
30
0
10
10.587760681471449
20
5.1160119607863201
30
0
10
10.829388525804655
20
5.2678283333260536
30
0
10
11.218666065163035
20
5.278578967998957
30
0
10
11.255241146174884
20
5.2795890579587788
30
0
10
11.293147966747661
20
5.27894033863166
30
0
10
11.332354876893557
20
5.2762007981972161
30
0
0
LINE
5
119
100
AcDbEntity
8
0
100
AcDbLine
10
11.332354876893557
20
5.2762007981972161
30
0
11
13.704511160428572
21
5.1104489439607281
31
0
0
SPLINE
5
120
100
AcDbEntity
8
0
100
AcDbSpline
70
0
71
3
72
11
73
7
74
0
42
0.000000001
43
0.0000000001
44
0.0000000001
40
0.53242277473875643
40
0.53242277473875643
40
0.53242277473875643
40
0.53242277473875643
40
1.4816138374304173
40
1.4816138374304173
40
1.4816138374304173
40
1.5707963267948923
40
1.5707963267948923
40
1.5707963267948923
40
1.5707963267948923
10
13.704511160428572
20
5.1104489439607281
30
0
10
14.121799901429464
20
5.0812913445845878
30
0
10
14.357322234201447
20
4.8962347741910923
30
0
10
14.542979358192692
20
4.6978734462857572
30
0
10
14.560423016415553
20
4.6792361479466056
30
0
10
14.577308024038578
20
4.6601755817427808
30
0
10
14.593663035676665
20
4.6406706048993653
30
0
0
LINE
5
121
100
AcDbEntity
8
0
100
AcDbLine
10
14.593663035676663
20
4.6406706048993653
30
0
11
15.896325224263796
21
3.0871164781622613
31
0
0
SPLINE
5
122
100
AcDbEntity
8
0
100
AcDbSpline
70
0
71
3
72
8
73
4
74
0
42
0.000000001
43
0.0000000001
44
0.0000000001
40
-1.5707963267948948
40
-1.5707963267948948
40
-1.5707963267948948
40
-1.5707963267948948
40
-0.64195097067072937
40
-0.64195097067072937
40
-0.64195097067072937
40
-0.64195097067072937
10
15.896325224263796
20
3.0871164781622613
30
0
10
16.081193166104516
20
2.8666430841662747
30
0
10
16.21473640902191
20
2.5838590590798249
30
0
10
16.188515671325259
20
2.2086011895824078
30
0
0
LINE
5
123
100
AcDbEntity
8
0
100
AcDbLine
10
16.188515671325256
20
2.2086011895824074
30
0
11
15.612440357175341
21
-6.0358958783081569
31
0
0
SPLINE
5
124
100
AcDbEntity
8
0
100
AcDbSpline
70
0
71
3
72
8
73
4
74
0
42
0.000000001
43
0.0000000001
44
0.0000000001
40
-0.7437700469045524
40
-0.7437700469045524
40
-0.7437700469045524
40
-0.7437700469045524
40
-0.62617353933551145
40
-0.62617353933551145
40
-0.62617353933551145
40
-0.62617353933551145
10
15.612440357175341
20
-6.0358958783081569
30
0
10
15.609327833387335
20
-6.0804407366168922
30
0
10
15.603628760464447
20
-6.1264358646151589
30
0
10
15.594670751789472
20
-6.1737654277303742
30
0
0
ARC
5
125
100
AcDbEntity
8
0
100
AcDbCircle
10
14.495412592874564
20
-5.9657101769428964
30
0
40
1.1187741002191796
210
0
220
0
230
1
100
AcDbArc
50
300.27187232709878
51
349.28247439796093
0
SPLINE
5
126
100
AcDbEntity
8
0
100
AcDbSpline
70
0
71
3
72
8
73
4
74
0
42
0.000000001
43
0.0000000001
44
0.0000000001
40
-0.46213448866132617
40
-0.46213448866132617
40
-0.46213448866132617
40
-0.46213448866132617
40
0
40
0
40
0
40
0
10
15.059390761246371
20
-6.9319317420723525
30
0
10
14.882654843488737
20
-7.0350915169932389
30
0
10
14.650620270950668
20
-7.0989637000975581
30
0
10
14.417366558473031
20
-7.0826653492599405
30
0
0
LINE
5
127
100
AcDbEntity
8
0
100
AcDbLine
10
14.417366558473031
20
-7.0826653492599414
30
0
11
8.9307440950906809
21
-6.6992935397744517
31
0
0
SPLINE
5
128
100
AcDbEntity
8
0
100
AcDbSpline
70
0
71
3
72
8
73
4
74
0
42
0.000000001
43
0.0000000001
44
0.0000000001
40
-3.3503535296062038e-16
40
-3.3503535296062038e-16
40
-3.3503535296062038e-16
40
-3.3503535296062038e-16
40
0.46213448866131518
40
0.46213448866131518
40
0.46213448866131518
40
0.46213448866131518
10
8.9307440950906809
20
-6.6992935397744517
30
0
10
8.6974903826130472
20
-6.6829951889368342
30
0
10
8.4765931874383966
20
-6.5874748885216672
30
0
10
8.3159209745032463
20
-6.4607390854592257
30
0
0
ARC
5
129
100
AcDbEntity
8
0
100
AcDbCircle
10
9.0087901294922119
20
-5.5823383674574067
30
0
40
1.1187741002191793
210
0
220
0
230
1
100
AcDbArc
50
182.72355730136817
51
231.73415937223234
0
SPLINE
5
130
100
AcDbEntity
8
0
100
AcDbSpline
70
0
71
3
72
8
73
4
74
0
42
0.000000001
43
0.0000000001
44
0.0000000001
40
0.62617353933553044
40
0.62617353933553044
40
0.62617353933553044
40
0.62617353933553044
40
0.74377004690456328
40
0.74377004690456328
40
0.74377004690456328
40
0.74377004690456328
10
7.8912797712128757
20
-5.6354993160910185
30
0
10
7.8889908780596034
20
-5.5873838878768725
30
0
10
7.8897436742896874
20
-5.5410431441453252
30
0
10
7.8928561980776957
20
-5.4964982858365943
30
0
0
LINE
5
131
100
AcDbEntity
8
0
100
AcDbLine
10
7.8928561980776966
20
-5.4964982858365925
30
0
11
8.4689315122276181
21
2.747998782053962
31
0
0
SPLINE
5
132
100
AcDbEntity
8
0
100
AcDbSpline
70
0
71
3
72
8
73
4
74
0
42
0.000000001
43
0.0000000001
44
0.0000000001
40
0.64195097067073381
40
0.64195097067073381
40
0.64195097067073381
40
0.64195097067073381
40
1.5707963267949032
40
1.5707963267949032
40
1.5707963267949032
40
1.5707963267949032
10
8.4689315122276181
20
2.7479987820539624
30
0
10
8.4951522499242671
20
3.1232566515513804
30
0
10
8.6667242646576561
20
3.384721078067328
30
0
10
8.8804567736443509
20
3.5773426967470234
30
0
0
LINE
5
133
100
AcDbEntity
8
0
100
AcDbLine
10
-39.828563455492827
20
-1.0837724713131698
30
0
11
-38.785151601052767
21
0.65454594148997836
31
0
0
SPLINE
5
134
100
AcDbEntity
8
0
100
AcDbSpline
70
0
71
3
72
11
73
7
74
0
42
0.000000001
43
0.0000000001
44
0.0000000001
40
-1.5707963267948968
40
-1.5707963267948968
40
-1.5707963267948968
40
-1.5707963267948968
40
-0.6216052641032298
40
-0.6216052641032298
40
-0.6216052641032298
40
-0.53242277473877508
40
-0.53242277473877508
40
-0.53242277473877508
40
-0.53242277473877508
10
-38.785151601052767
20
0.65454594148997847
30
0
10
-38.645723964295129
20
0.88683161775297403
30
0
10
-38.459040919230446
20
1.1026594816019584
30
0
10
-38.089916138338594
20
1.2267541024617516
30
0
10
-38.055234536140723
20
1.2384135750800791
30
0
10
-38.018794396168005
20
1.2488760834537453
30
0
10
-37.980499677421918
20
1.2577192390633956
30
0
0
LINE
5
135
100
AcDbEntity
8
0
100
AcDbLine
10
-37.980499677421925
20
1.2577192390633956
30
0
11
-35.663534189405688
21
1.7927613290332403
31
0
0
SPLINE
5
136
100
AcDbEntity
8
0
100
AcDbSpline
70
0
71
3
72
11
73
7
74
0
42
0.000000001
43
0.0000000001
44
0.0000000001
40
0.53242277473874677
40
0.53242277473874677
40
0.53242277473874677
40
0.53242277473874677
40
1.4816138374304066
40
1.4816138374304066
40
1.4816138374304066
40
1.5707963267949006
40
1.5707963267949006
40
1.5707963267949006
40
1.5707963267949006
10
-35.663534189405688
20
1.7927613290332403
30
0
10
-35.255954124741478
20
1.8868811986454126
30
0
10
-34.976617692820035
20
1.7787707861887259
30
0
10
-34.741077662578036
20
1.6433577947489524
30
0
10
-34.718947190571271
20
1.6306348898001364
30
0
10
-34.697227207242911
20
1.6173438781510678
30
0
10
-34.675884128499284
20
1.6034729186641461
30
0
0
LINE
5
137
100
AcDbEntity
8
0
100
AcDbLine
10
-34.675884128499284
20
1.6034729186641461
30
0
11
-32.975926813727021
21
0.49866328337452498
31
0
0
SPLINE
5
138
100
AcDbEntity
8
0
100
AcDbSpline
70
0
71
3
72
8
73
4
74
0
42
0.000000001
43
0.0000000001
44
0.0000000001
40
-1.5707963267948917
40
-1.5707963267948917
40
-1.5707963267948917
40
-1.5707963267948917
40
-0.64195097067073659
40
-0.64195097067073659
40
-0.64195097067073659
40
-0.64195097067073659
10
-32.975926813727021
20
0.49866328337452498
30
0
10
-32.734676539671035
20
0.34187368343740726
30
0
10
-32.524290453859521
20
0.11049024092282846
30
0
10
-32.439650687008104
20
-0.25603684616955918
30
0
0
LINE
5
139
100
AcDbEntity
8
0
100
AcDbLine
10
-32.439650687008104
20
-0.25603684616955924
30
0
11
-30.580096587401812
21
-8.3087167243632827
31
0
0
SPLINE
5
140
100
AcDbEntity
8
0
100
AcDbSpline
70
0
71
3
72
8
73
4
74
0
42
0.000000001
43
0.0000000001
44
0.0000000001
40
-0.74377004690458226
40
-0.74377004690458226
40
-0.74377004690458226
40
-0.74377004690458226
40
-0.62617353933564179
40
-0.62617353933564179
40
-0.62617353933564179
40
-0.62617353933564179
10
-30.580096587401812
20
-8.3087167243632827
30
0
10
-30.570049452542985
20
-8.3522251981034774
30
0
10
-30.562051829101925
20
-8.3978768054251081
30
0
10
-30.556780590349987
20
-8.4457573599970193
30
0
0
ARC
5
141
100
AcDbEntity
8
0
100
AcDbCircle
10
-31.6688358641007
20
-8.5681851160183662
30
0
40
1.1187741002191645
210
0
220
0
230
1
100
AcDbArc
50
-42.728127672903483
51
6.2824743979695006
0
SPLINE
5
142
100
AcDbEntity
8
0
100
AcDbSpline
70
0
71
3
72
8
73
4
74
0
42
0.000000001
43
0.0000000001
44
0.0000000001
40
-0.46213448866129964
40
-0.46213448866129964
40
-0.46213448866129964
40
-0.46213448866129964
40
0
40
0
40
0
40
0
10
-30.847005013290691
20
-9.3272961355524622
30
0
10
-30.985857412739378
20
-9.4776209004939087
30
0
10
-31.189078758946795
20
-9.6065425164978642
30
0
10
-31.416905570153745
20
-9.6591531116274876
30
0
0
LINE
5
143
100
AcDbEntity
8
0
100
AcDbLine
10
-31.416905570153748
20
-9.6591531116274876
30
0
11
-36.775875795541822
21
-10.896665989703518
31
0
0
SPLINE
5
144
100
AcDbEntity
8
0
100
AcDbSpline
70
0
71
3
72
8
73
4
74
0
42
0.000000001
43
0.0000000001
44
0.0000000001
40
0
40
0
40
0
40
0
40
0.46213448866131435
40
0.46213448866131435
40
0.46213448866131435
40
0.46213448866131435
10
-36.775875795541822
20
-10.896665989703518
30
0
10
-37.003702606748774
20
-10.949276584833143
30
0
10
-37.242875078141196
20
-10.922514156776785
30
0
10
-37.433580642312961
20
-10.848292114354802
30
0
0
ARC
5
145
100
AcDbEntity
8
0
100
AcDbCircle
10
-37.02780608948877
20
-9.805697994094368
30
0
40
1.1187741002192091
210
0
220
0
230
1
100
AcDbArc
50
199.723557301374
51
248.7341593722318
0
SPLINE
5
146
100
AcDbEntity
8
0
100
AcDbSpline
70
0
71
3
72
8
73
4
74
0
42
0.000000001
43
0.0000000001
44
0.0000000001
40
0.62617353933544873
40
0.62617353933544873
40
0.62617353933544873
40
0.62617353933544873
40
0.7437700469045232
40
0.7437700469045232
40
0.7437700469045232
40
0.7437700469045232
10
-38.080943802772559
20
-10.183264470599759
30
0
10
-38.097200271951372
20
-10.137920665356507
30
0
10
-38.110029091579193
20
-10.093384695414048
30
0
10
-38.12007622643803
20
-10.049876221673804
30
0
0
LINE
5
147
100
AcDbEntity
8
0
100
AcDbLine
10
-38.12007622643803
20
-10.049876221673804
30
0
11
-39.979630326044344
21
-1.9971963434799844
31
0
0
SPLINE
5
148
100
AcDbEntity
8
0
100
AcDbSpline
70
0
71
3
72
8
73
4
74
0
42
0.000000001
43
0.0000000001
44
0.0000000001
40
0.64195097067076523
40
0.64195097067076523
40
0.64195097067076523
40
0.64195097067076523
40
1.5707963267948966
40
1.5707963267948966
40
1.5707963267948966
40
1.5707963267948966
10
-39.979630326044344
20
-1.9971963434799842
30
0
10
-40.06427009289574
20
-1.6306692563876086
30
0
10
-39.976639759320868
20
-1.3304667793649587
30
0
10
-39.828563455492827
20
-1.0837724713131696
30
0
0
SPLINE
5
149
100
AcDbEntity
8
0
100
AcDbSpline
70
0
71
3
72
8
73
4
74
0
42
0.000000001
43
0.0000000001
44
0.0000000001
40
0.64195097067074014
40
0.64195097067074014
40
0.64195097067074014
40
0.64195097067074014
40
1.5707963267948639
40
1.5707963267948639
40
1.5707963267948639
40
1.5707963267948639
10
-51.693383326676098
20
-5.4100637448214517
30
0
10
-51.803384552436711
20
-5.0503336709657258
30
0
10
-51.736908748156488
20
-4.7447496890257721
30
0
10
-51.606401675784724
20
-4.4883270351094753
30
0
0
LINE
5
150
100
AcDbEntity
8
0
100
AcDbLine
10
-51.606401675784724
20
-4.4883270351094744
30
0
11
-50.686790482902012
21
-2.6814583469637601
31
0
0
SPLINE
5
151
100
AcDbEntity
8
0
100
AcDbSpline
70
0
71
3
72
11
73
7
74
0
42
0.000000001
43
0.0000000001
44
0.0000000001
40
-1.5707963267949043
40
-1.5707963267949043
40
-1.5707963267949043
40
-1.5707963267949043
40
-0.62160526410323935
40
-0.62160526410323935
40
-0.62160526410323935
40
-0.5324227747387632
40
-0.5324227747387632
40
-0.5324227747387632
40
-0.5324227747387632
10
-50.686790482902012
20
-2.6814583469637601
30
0
10
-50.56390591453728
20
-2.4400125266508139
30
0
10
-50.392733010705555
20
-2.2116880576991682
30
0
10
-50.033163802389609
20
-2.0621468820122248
30
0
10
-49.999380006527176
20
-2.0480965450100692
30
0
10
-49.963758460594605
20
-2.035117587113715
30
0
10
-49.926173893210787
20
-2.0236246684439219
30
0
0
LINE
5
152
100
AcDbEntity
8
0
100
AcDbLine
10
-49.926173893210773
20
-2.0236246684439219
30
0
11
-47.652175066174138
21
-1.3282625718832946
31
0
0
SPLINE
5
153
100
AcDbEntity
8
0
100
AcDbSpline
70
0
71
3
72
11
73
7
74
0
42
0.000000001
43
0.0000000001
44
0.0000000001
40
0.53242277473870236
40
0.53242277473870236
40
0.53242277473870236
40
0.53242277473870236
40
1.4816138374303323
40
1.4816138374303323
40
1.4816138374303323
40
1.5707963267948195
40
1.5707963267948195
40
1.5707963267948195
40
1.5707963267948195
10
-47.652175066174138
20
-1.3282625718832946
30
0
10
-47.252153316275951
20
-1.2059406254636511
30
0
10
-46.965955932715254
20
-1.2943021619100883
30
0
10
-46.721543733366751
20
-1.4129548521732671
30
0
10
-46.698579665092517
20
-1.4241030210755923
30
0
10
-46.67598545644676
20
-1.4358465470415167
30
0
10
-46.653726779148997
20
-1.4481948996562799
30
0
0
LINE
5
154
100
AcDbEntity
8
0
100
AcDbLine
10
-46.653726779148997
20
-1.4481948996562799
30
0
11
-44.880842850639546
21
-2.4317302464078838
31
0
0
SPLINE
5
155
100
AcDbEntity
8
0
100
AcDbSpline
70
0
71
3
72
8
73
4
74
0
42
0.000000001
43
0.0000000001
44
0.0000000001
40
-1.5707963267948455
40
-1.5707963267948455
40
-1.5707963267948455
40
-1.5707963267948455
40
-0.64195097067073248
40
-0.64195097067073248
40
-0.64195097067073248
40
-0.64195097067073248
10
-44.880842850639546
20
-2.4317302464078838
30
0
10
-44.629243160514605
20
-2.5713091463518252
30
0
10
-44.403229071601586
20
-2.7874531589586873
30
0
10
-44.293227845840974
20
-3.14718323281441
30
0
0
LINE
5
156
100
AcDbEntity
8
0
100
AcDbLine
10
-44.293227845840974
20
-3.14718323281441
30
0
11
-41.876476974067387
21
-11.050531250826198
31
0
0
SPLINE
5
157
100
AcDbEntity
8
0
100
AcDbSpline
70
0
71
3
72
8
73
4
74
0
42
0.000000001
43
0.0000000001
44
0.0000000001
40
-0.74377004690454041
40
-0.74377004690454041
40
-0.74377004690454041
40
-0.74377004690454041
40
-0.62617353933559083
40
-0.62617353933559083
40
-0.62617353933559083
40
-0.62617353933559083
10
-41.876476974067387
20
-11.050531250826198
30
0
10
-41.863419315818
20
-11.093232887412112
30
0
10
-41.852256679038177
20
-11.138215403703175
30
0
10
-41.843658302111059
20
-11.185611620623025
30
0
0
ARC
5
158
100
AcDbEntity
8
0
100
AcDbCircle
10
-42.944464536558144
20
-11.385314203289251
30
0
40
1.1187741002191305
210
0
220
0
230
1
100
AcDbArc
50
-38.728127672900669
51
10.282474397967006
0
SPLINE
5
159
100
AcDbEntity
8
0
100
AcDbSpline
70
0
71
3
72
8
73
4
74
0
42
0.000000001
43
0.0000000001
44
0.0000000001
40
-0.46213448866135376
40
-0.46213448866135376
40
-0.46213448866135376
40
-0.46213448866135376
40
-3.3503535296062034e-16
40
-3.3503535296062034e-16
40
-3.3503535296062034e-16
40
-3.3503535296062034e-16
10
-42.071682716492617
20
-12.085248044365846
30
0
10
-42.199710752956214
20
-12.244892479491664
30
0
10
-42.39344394485633
20
-12.3876760534196
30
0
10
-42.617045851803908
20
-12.456050886757861
30
0
0
LINE
5
160
100
AcDbEntity
8
0
100
AcDbLine
10
-42.617045851803901
20
-12.456050886757861
30
0
11
-47.876637360476309
21
-14.064372111482914
31
0
0
SPLINE
5
161
100
AcDbEntity
8
0
100
AcDbSpline
70
0
71
3
72
8
73
4
74
0
42
0.000000001
43
0.0000000001
44
0.0000000001
40
-3.3503535296062029e-16
40
-3.3503535296062029e-16
40
-3.3503535296062029e-16
40
-3.3503535296062029e-16
40
0.46213448866129098
40
0.46213448866129098
40
0.46213448866129098
40
0.46213448866129098
10
-47.876637360476309
20
-14.064372111482914
30
0
10
-48.100239267423873
20
-14.132746944821166
30
0
10
-48.340695979306773
20
-14.122733536915486
30
0
10
-48.536114462262475
20
-14.061995243338469
30
0
0
ARC
5
162
100
AcDbEntity
8
0
100
AcDbCircle
10
-48.204056045230573
20
-12.993635428014255
30
0
40
1.1187741002192206
210
0
220
0
230
1
100
AcDbArc
50
203.7235573013773
51
252.7341593722341
0
SPLINE
5
163
100
AcDbEntity
8
0
100
AcDbSpline
70
0
71
3
72
8
73
4
74
0
42
0.000000001
43
0.0000000001
44
0.0000000001
40
0.62617353933540187
40
0.62617353933540187
40
0.62617353933540187
40
0.62617353933540187
40
0.74377004690447701
40
0.74377004690447701
40
0.74377004690447701
40
0.74377004690447701
10
-49.228290661970291
20
-13.443745344804999
30
0
10
-49.24767055516714
20
-13.39964598875779
30
0
10
-49.263574796653074
20
-13.356113399419279
30
0
10
-49.276632454902483
20
-13.313411762833319
30
0
0
LINE
5
164
100
AcDbEntity
8
0
100
AcDbLine
10
-49.276632454902476
20
-13.313411762833319
30
0
11
-51.693383326676098
21
-5.4100637448214517
31
0
0
SPLINE
5
165
100
AcDbEntity
8
0
100
AcDbSpline
70
0
71
3
72
8
73
4
74
0
42
0.000000001
43
0.0000000001
44
0.0000000001
40
0.6419509706707176
40
0.6419509706707176
40
0.6419509706707176
40
0.6419509706707176
40
1.570796326794887
40
1.570796326794887
40
1.570796326794887
40
1.570796326794887
10
-84.8718311757208
20
-20.833194113267677
30
0
10
-85.059934736584694
20
-20.507428789613627
30
0
10
-85.063904141789493
20
-20.19472310307226
30
0
10
-84.994424503583801
20
-19.915514841634064
30
0
0
LINE
5
166
100
AcDbEntity
8
0
100
AcDbLine
10
-84.994424503583787
20
-19.915514841634064
30
0
11
-84.504839902456723
21
-17.948088573481758
31
0
0
SPLINE
5
167
100
AcDbEntity
8
0
100
AcDbSpline
70
0
71
3
72
11
73
7
74
0
42
0.000000001
43
0.0000000001
44
0.0000000001
40
-1.5707963267949228
40
-1.5707963267949228
40
-1.5707963267949228
40
-1.5707963267949228
40
-0.62160526410321026
40
-0.62160526410321026
40
-0.62160526410321026
40
-0.53242277473891675
40
-0.53242277473891675
40
-0.53242277473891675
40
-0.53242277473891675
10
-84.504839902456723
20
-17.948088573481758
30
0
10
-84.439418349464404
20
-17.685187980685058
30
0
10
-84.323994426091588
20
-17.424209927888526
30
0
10
-84.007280398428577
20
-17.197616010326112
30
0
10
-83.977523117187971
20
-17.176326082052114
30
0
10
-83.945734179433046
20
-17.155666669690952
30
0
10
-83.911698246248676
20
-17.136013625722082
30
0
0
LINE
5
168
100
AcDbEntity
8
0
100
AcDbLine
10
-83.911698246248676
20
-17.136013625722086
30
0
11
-81.852404298599239
21
-15.946935180928348
31
0
0
SPLINE
5
169
100
AcDbEntity
8
0
100
AcDbSpline
70
0
71
3
72
11
73
7
74
0
42
0.000000001
43
0.0000000001
44
0.0000000001
40
0.53242277473878585
40
0.53242277473878585
40
0.53242277473878585
40
0.53242277473878585
40
1.481613837430457
40
1.481613837430457
40
1.481613837430457
40
1.5707963267949019
40
1.5707963267949019
40
1.5707963267949019
40
1.5707963267949019
10
-81.852404298599239
20
-15.946935180928348
30
0
10
-81.490151531051936
20
-15.73776302367075
30
0
10
-81.19141234710348
20
-15.75947945648017
30
0
10
-80.92657336881453
20
-15.82011030404092
30
0
10
-80.901690075773857
20
-15.8258069547262
30
0
10
-80.877033236684198
20
-15.832166903825495
30
0
10
-80.852567272903443
20
-15.8391916560363
30
0
0
LINE
5
170
100
AcDbEntity
8
0
100
AcDbLine
10
-80.852567272903457
20
-15.839191656036302
30
0
11
-78.903874931388884
21
-16.398706946621687
31
0
0
SPLINE
5
171
100
AcDbEntity
8
0
100
AcDbSpline
70
0
71
3
72
8
73
4
74
0
42
0.000000001
43
0.0000000001
44
0.0000000001
40
-1.5707963267949352
40
-1.5707963267949352
40
-1.5707963267949352
40
-1.5707963267949352
40
-0.64195097067073636
40
-0.64195097067073636
40
-0.64195097067073636
40
-0.64195097067073636
10
-78.903874931388884
20
-16.398706946621687
30
0
10
-78.62732530431532
20
-16.478110832836514
30
0
10
-78.358482118332716
20
-16.637872980805653
30
0
10
-78.170378557468837
20
-16.96363830445971
30
0
0
LINE
5
172
100
AcDbEntity
8
0
100
AcDbLine
10
-78.170378557468851
20
-16.96363830445971
30
0
11
-74.037702384470791
21
-24.12077336809816
31
0
0
SPLINE
5
173
100
AcDbEntity
8
0
100
AcDbSpline
70
0
71
3
72
8
73
4
74
0
42
0.000000001
43
0.0000000001
44
0.0000000001
40
-0.74377004690457926
40
-0.74377004690457926
40
-0.74377004690457926
40
-0.74377004690457926
40
-0.62617353933556363
40
-0.62617353933556363
40
-0.62617353933556363
40
-0.62617353933556363
10
-74.037702384470791
20
-24.12077336809816
30
0
10
-74.015373614984171
20
-24.159443230514373
30
0
10
-73.99437821139513
20
-24.20076180091424
30
0
10
-73.975338381343562
20
-24.245009041909633
30
0
0
ARC
5
174
100
AcDbEntity
8
0
100
AcDbCircle
10
-75.003007716791814
20
-24.687220783387041
30
0
40
1.1187741002191289
210
0
220
0
230
1
100
AcDbArc
50
-25.728127672907789
51
23.282474397965256
0
SPLINE
5
175
100
AcDbEntity
8
0
100
AcDbSpline
70
0
71
3
72
8
73
4
74
0
42
0.000000001
43
0.0000000001
44
0.0000000001
40
-0.4621344886612469
40
-0.4621344886612469
40
-0.4621344886612469
40
-0.4621344886612469
40
-3.3503535296062043e-16
40
-3.3503535296062043e-16
40
-3.3503535296062043e-16
40
-3.3503535296062043e-16
10
-73.995144382710109
20
-25.172882174826455
30
0
10
-74.083978884891792
20
-25.357234975210616
30
0
10
-74.24062739213646
20
-25.539939501168327
30
0
10
-74.443117405845015
20
-25.65686137667894
30
0
0
LINE
5
176
100
AcDbEntity
8
0
100
AcDbLine
10
-74.443117405845001
20
-25.65686137667894
30
0
11
-79.206112369668503
21
-28.407112087903649
31
0
0
SPLINE
5
177
100
AcDbEntity
8
0
100
AcDbSpline
70
0
71
3
72
8
73
4
74
0
42
0.000000001
43
0.0000000001
44
0.0000000001
40
-3.3503535296062038e-16
40
-3.3503535296062038e-16
40
-3.3503535296062038e-16
40
-3.3503535296062038e-16
40
0.46213448866138002
40
0.46213448866138002
40
0.46213448866138002
40
0.46213448866138002
10
-79.206112369668503
20
-28.407112087903649
30
0
10
-79.408602383377115
20
-28.524033963414293
30
0
10
-79.645148731978523
20
-28.56836818936663
30
0
10
-79.849221795055527
20
-28.553146208098191
30
0
0
ARC
5
178
100
AcDbEntity
8
0
100
AcDbCircle
10
-79.766002680615344
20
-27.437471494611771
30
0
40
1.118774100219172
210
0
220
0
230
1
100
AcDbArc
50
216.72355730137332
51
265.73415937222677
0
SPLINE
5
179
100
AcDbEntity
8
0
100
AcDbSpline
70
0
71
3
72
8
73
4
74
0
42
0.000000001
43
0.0000000001
44
0.0000000001
40
0.62617353933544351
40
0.62617353933544351
40
0.62617353933544351
40
0.62617353933544351
40
0.74377004690462023
40
0.74377004690462023
40
0.74377004690462023
40
0.74377004690462023
10
-80.662733530130609
20
-28.106447780326626
30
0
10
-80.691536914559094
20
-28.06783821532559
30
0
10
-80.716826233236134
20
-28.028999039322326
30
0
10
-80.739155002722782
20
-27.990329176906062
30
0
0
LINE
5
180
100
AcDbEntity
8
0
100
AcDbLine
10
-80.739155002722768
20
-27.990329176906062
30
0
11
-84.8718311757208
21
-20.833194113267677
31
0
0
LINE
5
181
100
AcDbEntity
8
0
100
AcDbLine
10
-3.3768536861205254
20
3.8008993552632098
30
0
11
-1.9691478501666673
21
5.259948182992396
31
0
0
SPLINE
5
182
100
AcDbEntity
8
0
100
AcDbSpline
70
0
71
3
72
11
73
7
74
0
42
0.000000001
43
0.0000000001
44
0.0000000001
40
-1.570796326794899
40
-1.570796326794899
40
-1.570796326794899
40
-1.570796326794899
40
-0.62160526410323769
40
-0.62160526410323769
40
-0.62160526410323769
40
-0.53242277473875332
40
-0.53242277473875332
40
-0.53242277473875332
40
-0.53242277473875332
10
-1.9691478501666673
20
5.259948182992396
30
0
10
-1.7810408269219358
20
5.454915998528147
30
0
10
-1.5505917506783462
20
5.6232176603937152
30
0
10
-1.1630123982061116
20
5.6610967355143051
30
0
10
-1.1265968725671209
20
5.6646557136240432
30
0
10
-1.0887371387313685
20
5.6666528206786086
30
0
10
-1.0494346339676781
20
5.6666548894251534
30
0
0
LINE
5
183
100
AcDbEntity
8
0
100
AcDbLine
10
-1.0494346339676781
20
5.6666548894251525
30
0
11
1.3285054609528841
21
5.6667800558843018
31
0
0
SPLINE
5
184
100
AcDbEntity
8
0
100
AcDbSpline
70
0
71
3
72
11
73
7
74
0
42
0.000000001
43
0.0000000001
44
0.0000000001
40
0.53242277473874544
40
0.53242277473874544
40
0.53242277473874544
40
0.53242277473874544
40
1.481613837430404
40
1.481613837430404
40
1.481613837430404
40
1.5707963267948961
40
1.5707963267948961
40
1.5707963267948961
40
1.5707963267948961
10
1.3285054609528841
20
5.6667800558843018
30
0
10
1.7468116388688828
20
5.666802074060139
30
0
10
1.9946691448693776
20
5.4986254995933761
30
0
10
2.1937110041995518
20
5.3136981562083196
30
0
10
2.212412242759958
20
5.2963230654780364
30
0
10
2.2305857172390007
20
5.2784867684464256
30
0
10
2.2482614872957991
20
5.2601701726861974
30
0
0
LINE
5
185
100
AcDbEntity
8
0
100
AcDbLine
10
2.2482614872957991
20
5.2601701726861974
30
0
11
3.6561209139149198
21
3.8012695464761097
31
0
0
SPLINE
5
186
100
AcDbEntity
8
0
100
AcDbSpline
70
0
71
3
72
8
73
4
74
0
42
0.000000001
43
0.0000000001
44
0.0000000001
40
-1.5707963267948934
40
-1.5707963267948934
40
-1.5707963267948934
40
-1.5707963267948934
40
-0.64195097067073559
40
-0.64195097067073559
40
-0.64195097067073559
40
-0.64195097067073559
10
3.6561209139149198
20
3.8012695464761097
30
0
10
3.8559179732603024
20
3.594228950318088
30
0
10
4.0088619279710072
20
3.3214492786223482
30
0
10
4.0088817283944103
20
2.9452764522339487
30
0
0
LINE
5
187
100
AcDbEntity
8
0
100
AcDbLine
10
4.0088817283944103
20
2.9452764522339487
30
0
11
4.0093167480061433
21
-5.3193224176923426
31
0
0
SPLINE
5
188
100
AcDbEntity
8
0
100
AcDbSpline
70
0
71
3
72
8
73
4
74
0
42
0.000000001
43
0.0000000001
44
0.0000000001
40
-0.7437700469045625
40
-0.7437700469045625
40
-0.7437700469045625
40
-0.7437700469045625
40
-0.62617353933550279
40
-0.62617353933550279
40
-0.62617353933550279
40
-0.62617353933550279
10
4.0093167480061433
20
-5.3193224176923426
30
0
10
4.0093190984086977
20
-5.3639758856489568
30
0
10
4.0068423660795887
20
-5.4102565190578442
30
0
10
4.0012077220902826
20
-5.4580956688330309
30
0
0
ARC
5
189
100
AcDbEntity
8
0
100
AcDbCircle
10
2.8901141001630872
20
-5.3272276030800034
30
0
40
1.1187741002191789
210
0
220
0
230
1
100
AcDbArc
50
304.27187232709662
51
353.28247439796036
0
SPLINE
5
190
100
AcDbEntity
8
0
100
AcDbSpline
70
0
71
3
72
8
73
4
74
0
42
0.000000001
43
0.0000000001
44
0.0000000001
40
-0.46213448866129658
40
-0.46213448866129658
40
-0.46213448866129658
40
-0.46213448866129658
40
0
40
0
40
0
40
0
10
3.5201186553011095
20
-6.2517543727446654
30
0
10
3.3510093194871384
20
-6.3669913300453294
30
0
10
3.123995469769469
20
-6.4468938372887807
30
0
10
2.8901730361298741
20
-6.4469061448848173
30
0
0
LINE
5
191
100
AcDbEntity
8
0
100
AcDbLine
10
2.8901730361298741
20
-6.4469061448848164
30
0
11
-2.6098269562509699
21
-6.4471956456698951
31
0
0
SPLINE
5
192
100
AcDbEntity
8
0
100
AcDbSpline
70
0
71
3
72
8
73
4
74
0
42
0.000000001
43
0.0000000001
44
0.0000000001
40
0
40
0
40
0
40
0
40
0.46213448866130435
40
0.46213448866130435
40
0.46213448866130435
40
0.46213448866130435
10
-2.6098269562509699
20
-6.4471956456698951
30
0
10
-2.8436493898905688
20
-6.4472079532659325
30
0
10
-3.0706716499279647
20
-6.3673293448970991
30
0
10
-3.2397931161465268
20
-6.2521101908842249
30
0
0
ARC
5
193
100
AcDbEntity
8
0
100
AcDbCircle
10
-2.6098858922177559
20
-5.3275171038650795
30
0
40
1.1187741002191822
210
0
220
0
230
1
100
AcDbArc
50
186.72355730136977
51
235.73415937223305
0
SPLINE
5
194
100
AcDbEntity
8
0
100
AcDbSpline
70
0
71
3
72
8
73
4
74
0
42
0.000000001
43
0.0000000001
44
0.0000000001
40
0.62617353933550601
40
0.62617353933550601
40
0.62617353933550601
40
0.62617353933550601
40
0.74377004690455617
40
0.74377004690455617
40
0.74377004690455617
40
0.74377004690455617
10
-3.7209657311126234
20
-5.4585021370658104
30
0
10
-3.7266054112421232
20
-5.4106635807316632
30
0
10
-3.7290870156592137
20
-5.3643832083123035
30
0
10
-3.7290893660617681
20
-5.319729740355692
30
0
0
LINE
5
195
100
AcDbEntity
8
0
100
AcDbLine
10
-3.7290893660617677
20
-5.319729740355692
30
0
11
-3.7295243856734981
21
2.9448691295706064
31
0
0
SPLINE
5
196
100
AcDbEntity
8
0
100
AcDbSpline
70
0
71
3
72
8
73
4
74
0
42
0.000000001
43
0.0000000001
44
0.0000000001
40
0.64195097067073759
40
0.64195097067073759
40
0.64195097067073759
40
0.64195097067073759
40
1.5707963267949017
40
1.5707963267949017
40
1.5707963267949017
40
1.5707963267949017
10
-3.7295243856734981
20
2.9448691295706064
30
0
10
-3.7295441860969003
20
3.3210419559590081
30
0
10
-3.5766289485715035
20
3.593837727014094
30
0
10
-3.3768536861205249
20
3.8008993552632098
30
0
0
LINE
5
197
100
AcDbEntity
8
0
100
AcDbLine
10
45.14750764651189
20
-2.5145454431893004
30
0
11
46.920288025468444
21
-1.5308234650555241
31
0
0
SPLINE
5
198
100
AcDbEntity
8
0
100
AcDbSpline
70
0
71
3
72
11
73
7
74
0
42
0.000000001
43
0.0000000001
44
0.0000000001
40
-1.5707963267948533
40
-1.5707963267948533
40
-1.5707963267948533
40
-1.5707963267948533
40
-0.62160526410320238
40
-0.62160526410320238
40
-0.62160526410320238
40
-0.53242277473875221
40
-0.53242277473875221
40
-0.53242277473875221
40
-0.53242277473875221
10
46.920288025468444
20
-1.5308234650555241
30
0
10
47.157178739021688
20
-1.3993719868553509
30
0
10
47.426764930428035
20
-1.3058010964499474
30
0
10
47.80848367827663
20
-1.3828943927583037
30
0
10
47.844348563133096
20
-1.3901377943750379
30
0
10
47.881137904253769
20
-1.3992970663224962
30
0
10
47.918723681323485
20
-1.4107860282879652
30
0
0
LINE
5
199
100
AcDbEntity
8
0
100
AcDbLine
10
47.918723681323485
20
-1.4107860282879652
30
0
11
50.192795698622263
21
-2.1059087302882693
31
0
0
SPLINE
5
200
100
AcDbEntity
8
0
100
AcDbSpline
70
0
71
3
72
11
73
7
74
0
42
0.000000001
43
0.0000000001
44
0.0000000001
40
0.53242277473875621
40
0.53242277473875621
40
0.53242277473875621
40
0.53242277473875621
40
1.4816138374304197
40
1.4816138374304197
40
1.4816138374304197
40
1.5707963267949041
40
1.5707963267949041
40
1.5707963267949041
40
1.5707963267949041
10
50.192795698622263
20
-2.1059087302882693
30
0
10
50.592830323503648
20
-2.2281885645353565
30
0
10
50.780687563521774
20
-2.4614831440971856
30
0
10
50.916964717599605
20
-2.6965242498074726
30
0
10
50.929768816080795
20
-2.7186078447064626
30
0
10
50.941933367588405
20
-2.7409781901007317
30
0
10
50.953481536231891
20
-2.7636623327630816
30
0
0
LINE
5
201
100
AcDbEntity
8
0
100
AcDbLine
10
50.953481536231891
20
-2.763662332763082
30
0
11
51.87328293852903
21
-4.5704342006558321
31
0
0
SPLINE
5
202
100
AcDbEntity
8
0
100
AcDbSpline
70
0
71
3
72
8
73
4
74
0
42
0.000000001
43
0.0000000001
44
0.0000000001
40
-1.5707963267949043
40
-1.5707963267949043
40
-1.5707963267949043
40
-1.5707963267949043
40
-0.64195097067070506
40
-0.64195097067070506
40
-0.64195097067070506
40
-0.64195097067070506
10
51.87328293852903
20
-4.5704342006558321
30
0
10
52.003817004562919
20
-4.8268431142785797
30
0
10
52.070324978221187
20
-5.1324200964170732
30
0
10
51.960361622938692
20
-5.4921617484399201
30
0
0
LINE
5
203
100
AcDbEntity
8
0
100
AcDbLine
10
51.960361622938706
20
-5.4921617484399201
30
0
11
49.544442773812378
21
-13.395764141302591
31
0
0
SPLINE
5
204
100
AcDbEntity
8
0
100
AcDbSpline
70
0
71
3
72
8
73
4
74
0
42
0.000000001
43
0.0000000001
44
0.0000000001
40
-0.74377004690456427
40
-0.74377004690456427
40
-0.74377004690456427
40
-0.74377004690456427
40
-0.62617353933545039
40
-0.62617353933545039
40
-0.62617353933545039
40
-0.62617353933545039
10
49.544442773812378
20
-13.395764141302591
30
0
10
49.531389610965249
20
-13.438467152270965
30
0
10
49.515489952374267
20
-13.482001415655683
30
0
10
49.496114701756866
20
-13.526102811638284
30
0
0
ARC
5
205
100
AcDbEntity
8
0
100
AcDbCircle
10
48.471832706265701
20
-13.076100721605508
30
0
40
1.1187741002191838
210
0
220
0
230
1
100
AcDbArc
50
287.27187232709286
51
336.28247439795706
0
SPLINE
5
206
100
AcDbEntity
8
0
100
AcDbSpline
70
0
71
3
72
8
73
4
74
0
42
0.000000001
43
0.0000000001
44
0.0000000001
40
-0.46213448866123913
40
-0.46213448866123913
40
-0.46213448866123913
40
-0.46213448866123913
40
0
40
0
40
0
40
0
10
48.804003590913837
20
-14.144425574219781
30
0
10
48.608591503144147
20
-14.205184439752635
30
0
10
48.368135846735299
20
-14.21522316120528
30
0
10
48.144526743002096
20
-14.146871867492285
30
0
0
LINE
5
207
100
AcDbEntity
8
0
100
AcDbLine
10
48.144526743002096
20
-14.146871867492285
30
0
11
42.884765950653588
21
-12.539104344722487
31
0
0
SPLINE
5
208
100
AcDbEntity
8
0
100
AcDbSpline
70
0
71
3
72
8
73
4
74
0
42
0.000000001
43
0.0000000001
44
0.0000000001
40
0
40
0
40
0
40
0
40
0.46213448866131507
40
0.46213448866131507
40
0.46213448866131507
40
0.46213448866131507
10
42.884765950653588
20
-12.539104344722487
30
0
10
42.661156846920349
20
-12.470753051009481
30
0
10
42.467408624836793
20
-12.327989872749509
30
0
10
42.339363782831995
20
-12.168358916405426
30
0
0
ARC
5
209
100
AcDbEntity
8
0
100
AcDbCircle
10
43.212071913917207
20
-11.468333198835694
30
0
40
1.1187741002191944
210
0
220
0
230
1
100
AcDbArc
50
169.72355730136942
51
218.73415937223271
0
SPLINE
5
210
100
AcDbEntity
8
0
100
AcDbSpline
70
0
71
3
72
8
73
4
74
0
42
0.000000001
43
0.0000000001
44
0.0000000001
40
0.62617353933552466
40
0.62617353933552466
40
0.62617353933552466
40
0.62617353933552466
40
0.74377004690456261
40
0.74377004690456261
40
0.74377004690456261
40
0.74377004690456261
10
42.111244662277329
20
-11.268746502464762
30
0
10
42.119838049614266
20
-11.221349380630464
30
0
10
42.130995950887225
20
-11.176365689464225
30
0
10
42.144049113734347
20
-11.133662678495877
30
0
0
LINE
5
211
100
AcDbEntity
8
0
100
AcDbLine
10
42.144049113734347
20
-11.133662678495879
30
0
11
44.559967962860654
21
-3.2300602856331961
31
0
0
SPLINE
5
212
100
AcDbEntity
8
0
100
AcDbSpline
70
0
71
3
72
8
73
4
74
0
42
0.000000001
43
0.0000000001
44
0.0000000001
40
0.64195097067071116
40
0.64195097067071116
40
0.64195097067071116
40
0.64195097067071116
40
1.5707963267948584
40
1.5707963267948584
40
1.5707963267948584
40
1.5707963267948584
10
44.559967962860654
20
-3.2300602856331961
30
0
10
44.669931318143121
20
-2.8703186336103648
30
0
10
44.8959226516724
20
-2.6541508290171607
30
0
10
45.14750764651189
20
-2.5145454431893004
30
0
0
CIRCLE
5
213
100
AcDbEntity
8
0
100
AcDbCircle
10
-96.000000000001819
20
-39.899694502737596
30
0
40
1.5499999999999934
210
0
220
-0
230
1
0
CIRCLE
5
214
100
AcDbEntity
8
0
100
AcDbCircle
10
96.000000000001819
20
-39.899694502737596
30
0
40
1.5499999999999934
210
0
220
-0
230
1
0
LINE
5
215
100
AcDbEntity
8
0
100
AcDbLine
10
68.202690929734771
20
-11.009528737372452
30
0
11
70.107533461863596
21
-10.315241959398445
31
0
0
SPLINE
5
216
100
AcDbEntity
8
0
100
AcDbSpline
70
0
71
3
72
11
73
7
74
0
42
0.000000001
43
0.0000000001
44
0.0000000001
40
-1.5707963267949097
40
-1.5707963267949097
40
-1.5707963267949097
40
-1.5707963267949097
40
-0.62160526410325778
40
-0.62160526410325778
40
-0.62160526410325778
40
-0.53242277473871058
40
-0.53242277473871058
40
-0.53242277473871058
40
-0.53242277473871058
10
70.107533461863596
20
-10.315241959398445
30
0
10
70.362071199306385
20
-10.222466739073827
30
0
10
70.642976049527789
20
-10.172220433236186
30
0
10
71.007935157598226
20
-10.308078551253493
30
0
10
71.042225368550788
20
-10.320843278652848
30
0
10
71.077128946026619
20
-10.335644905661104
30
0
10
71.112454710191699
20
-10.352872130368983
30
0
0
LINE
5
217
100
AcDbEntity
8
0
100
AcDbLine
10
71.112454710191699
20
-10.352872130368983
30
0
11
73.249787979326598
21
-11.395179957906748
31
0
0
SPLINE
5
218
100
AcDbEntity
8
0
100
AcDbSpline
70
0
71
3
72
11
73
7
74
0
42
0.000000001
43
0.0000000001
44
0.0000000001
40
0.53242277473877109
40
0.53242277473877109
40
0.53242277473877109
40
0.53242277473877109
40
1.4816138374304366
40
1.4816138374304366
40
1.4816138374304366
40
1.570796326794895
40
1.570796326794895
40
1.570796326794895
40
1.570796326794895
10
73.249787979326598
20
-11.395179957906748
30
0
10
73.625768733700625
20
-11.578533527023398
30
0
10
73.774817826612377
20
-11.83834321002683
30
0
10
73.872648653150293
20
-12.091809013392842
30
0
10
73.881840476577793
20
-12.115623724889222
30
0
10
73.890355769255905
20
-12.139621609317768
30
0
10
73.898213179058018
20
-12.163833004125699
30
0
0
LINE
5
219
100
AcDbEntity
8
0
100
AcDbLine
10
73.898213179058018
20
-12.163833004125699
30
0
11
74.524048909166453
21
-14.092249152470311
31
0
0
SPLINE
5
220
100
AcDbEntity
8
0
100
AcDbSpline
70
0
71
3
72
8
73
4
74
0
42
0.000000001
43
0.0000000001
44
0.0000000001
40
-1.5707963267948686
40
-1.5707963267948686
40
-1.5707963267948686
40
-1.5707963267948686
40
-0.64195097067069262
40
-0.64195097067069262
40
-0.64195097067069262
40
-0.64195097067069262
10
74.524048909166453
20
-14.092249152470311
30
0
10
74.612864693004468
20
-14.365921273669699
30
0
10
74.630751071413883
20
-14.678140235362275
30
0
10
74.465865554621757
20
-15.016250812034018
30
0
0
LINE
5
221
100
AcDbEntity
8
0
100
AcDbLine
10
74.465865554621757
20
-15.016250812034018
30
0
11
70.843294863297487
21
-22.444613771420681
31
0
0
SPLINE
5
222
100
AcDbEntity
8
0
100
AcDbSpline
70
0
71
3
72
8
73
4
74
0
42
0.000000001
43
0.0000000001
44
0.0000000001
40
-0.74377004690449733
40
-0.74377004690449733
40
-0.74377004690449733
40
-0.74377004690449733
40
-0.62617353933541453
40
-0.62617353933541453
40
-0.62617353933541453
40
-0.62617353933541453
10
70.843294863297487
20
-22.444613771420681
30
0
10
70.823722183869052
20
-22.484749072915371
30
0
10
70.801208017255789
20
-22.525260102690837
30
0
10
70.775172329836806
20
-22.565787580341457
30
0
0
ARC
5
223
100
AcDbEntity
8
0
100
AcDbCircle
10
69.833896781629974
20
-21.961092756757647
30
0
40
1.1187741002191334
210
0
220
0
230
1
100
AcDbArc
50
278.27187232709548
51
327.28247439795564
0
SPLINE
5
224
100
AcDbEntity
8
0
100
AcDbSpline
70
0
71
3
72
8
73
4
74
0
42
0.000000001
43
0.0000000001
44
0.0000000001
40
-0.46213448866128204
40
-0.46213448866128204
40
-0.46213448866128204
40
-0.46213448866128204
40
0
40
0
40
0
40
0
10
69.994855264674257
20
-23.068227732294602
30
0
10
69.792344243346676
20
-23.097669369956559
30
0
10
69.55327859306135
20
-23.069968946113608
30
0
10
69.343114986519922
20
-22.967478999728051
30
0
0
LINE
5
225
100
AcDbEntity
8
0
100
AcDbLine
10
69.343114986519922
20
-22.967478999728044
30
0
11
64.399620829931393
21
-20.556697897310166
31
0
0
SPLINE
5
226
100
AcDbEntity
8
0
100
AcDbSpline
70
0
71
3
72
8
73
4
74
0
42
0.000000001
43
0.0000000001
44
0.0000000001
40
0
40
0
40
0
40
0
40
0.46213448866124096
40
0.46213448866124096
40
0.46213448866124096
40
0.46213448866124096
10
64.399620829931393
20
-20.556697897310166
30
0
10
64.189457223389979
20
-20.454207950924616
30
0
10
64.020427444845581
20
-20.282893524816842
30
0
10
63.918930830583633
20
-20.105197264077589
30
0
0
ARC
5
227
100
AcDbEntity
8
0
100
AcDbCircle
10
64.890402625041446
20
-19.550311654339719
30
0
40
1.1187741002191951
210
0
220
0
230
1
100
AcDbArc
50
160.72355730137048
51
209.73415937223714
0
SPLINE
5
228
100
AcDbEntity
8
0
100
AcDbSpline
70
0
71
3
72
8
73
4
74
0
42
0.000000001
43
0.0000000001
44
0.0000000001
40
0.6261735393354998
40
0.6261735393354998
40
0.6261735393354998
40
0.6261735393354998
40
0.74377004690456638
40
0.74377004690456638
40
0.74377004690456638
40
0.74377004690456638
10
63.834350621663276
20
-19.180974879184276
30
0
10
63.850252753540786
20
-19.135505596521696
30
0
10
63.868310282196738
20
-19.092821209556469
30
0
10
63.887882961625166
20
-19.052685908061786
30
0
0
LINE
5
229
100
AcDbEntity
8
0
100
AcDbLine
10
63.887882961625166
20
-19.05268590806179
30
0
11
67.510453652949423
21
-11.624322948675157
31
0
0
SPLINE
5
230
100
AcDbEntity
8
0
100
AcDbSpline
70
0
71
3
72
8
73
4
74
0
42
0.000000001
43
0.0000000001
44
0.0000000001
40
0.64195097067072915
40
0.64195097067072915
40
0.64195097067072915
40
0.64195097067072915
40
1.5707963267948337
40
1.5707963267948337
40
1.5707963267948337
40
1.5707963267948337
10
67.510453652949423
20
-11.624322948675157
30
0
10
67.675339169741505
20
-11.286212372003437
30
0
10
67.932364269814386
20
-11.108058785159066
30
0
10
68.202690929734729
20
-11.009528737372467
30
0
0
LINE
5
231
100
AcDbEntity
8
0
100
AcDbLine
10
21.160148225900741
20
2.4892129404766044
30
0
11
22.778768389893518
21
3.7100847466022886
31
0
0
SPLINE
5
232
100
AcDbEntity
8
0
100
AcDbSpline
70
0
71
3
72
11
73
7
74
0
42
0.000000001
43
0.0000000001
44
0.0000000001
40
-1.5707963267949032
40
-1.5707963267949032
40
-1.5707963267949032
40
-1.5707963267949032
40
-0.6216052641032388
40
-0.6216052641032388
40
-0.6216052641032388
40
-0.53242277473876054
40
-0.53242277473876054
40
-0.53242277473876054
40
-0.53242277473876054
10
22.778768389893518
20
3.7100847466022886
30
0
10
22.995059189459795
20
3.8732257632466549
30
0
10
23.248999235605829
20
4.0034051744128831
30
0
10
23.637732435950781
20
3.9801871265973832
30
0
10
23.674256372877739
20
3.9780056445083107
30
0
10
23.711962406939055
20
3.9740555966518625
30
0
10
23.750781356273592
20
3.9679093736212567
30
0
0
LINE
5
233
100
AcDbEntity
8
0
100
AcDbLine
10
23.750781356273592
20
3.9679093736212567
30
0
11
26.099464643008446
21
3.5960412124269672
31
0
0
SPLINE
5
234
100
AcDbEntity
8
0
100
AcDbSpline
70
0
71
3
72
11
73
7
74
0
42
0.000000001
43
0.0000000001
44
0.0000000001
40
0.53242277473877864
40
0.53242277473877864
40
0.53242277473877864
40
0.53242277473877864
40
1.4816138374304479
40
1.4816138374304479
40
1.4816138374304479
40
1.5707963267949006
40
1.5707963267949006
40
1.5707963267949006
40
1.5707963267949006
10
26.099464643008446
20
3.5960412124269672
30
0
10
26.512624222136544
20
3.5306254563571944
30
0
10
26.731121578483211
20
3.3257459582377482
30
0
10
26.898783892200242
20
3.1119583705341594
30
0
10
26.91453682445762
20
3.0918716777532973
30
0
10
26.929696341724227
20
3.0714120173777406
30
0
10
26.944289146861252
20
3.0505558296729691
30
0
0
LINE
5
235
100
AcDbEntity
8
0
100
AcDbLine
10
26.944289146861248
20
3.0505558296729687
30
0
11
28.106593148721895
21
1.3893789548232938
31
0
0
SPLINE
5
236
100
AcDbEntity
8
0
100
AcDbSpline
70
0
71
3
72
8
73
4
74
0
42
0.000000001
43
0.0000000001
44
0.0000000001
40
-1.5707963267948659
40
-1.5707963267948659
40
-1.5707963267948659
40
-1.5707963267948659
40
-0.64195097067069906
40
-0.64195097067069906
40
-0.64195097067069906
40
-0.64195097067069906
10
28.106593148721895
20
1.3893789548232938
30
0
10
28.271542089820933
20
1.1536322258728375
30
0
10
28.379930908637625
20
0.86028521885127052
30
0
10
28.321104070426205
20
0.48874060671007813
30
0
0
LINE
5
237
100
AcDbEntity
8
0
100
AcDbLine
10
28.321104070426205
20
0.48874060671007824
30
0
11
27.028665631235636
21
-7.6741753888720439
31
0
0
SPLINE
5
238
100
AcDbEntity
8
0
100
AcDbSpline
70
0
71
3
72
8
73
4
74
0
42
0.000000001
43
0.0000000001
44
0.0000000001
40
-0.74377004690458626
40
-0.74377004690458626
40
-0.74377004690458626
40
-0.74377004690458626
40
-0.62617353933552
40
-0.62617353933552
40
-0.62617353933552
40
-0.62617353933552
10
27.028665631235636
20
-7.6741753888720439
30
0
10
27.021682611328849
20
-7.7182794662238994
30
0
10
27.011996485555578
20
-7.7636028619402655
30
0
10
26.998947521580874
20
-7.8099715798790434
30
0
0
ARC
5
239
100
AcDbEntity
8
0
100
AcDbCircle
10
25.922005581750657
20
-7.5069013808227485
30
0
40
1.1187741002192042
210
0
220
0
230
1
100
AcDbArc
50
295.27187232709633
51
344.28247439796093
0
SPLINE
5
240
100
AcDbEntity
8
0
100
AcDbSpline
70
0
71
3
72
8
73
4
74
0
42
0.000000001
43
0.0000000001
44
0.0000000001
40
-0.46213448866128209
40
-0.46213448866128209
40
-0.46213448866128209
40
-0.46213448866128209
40
0
40
0
40
0
40
0
10
26.399625884754446
20
-8.5186001173445742
30
0
10
26.214571533717006
20
-8.6059637879947264
30
0
10
25.977853095221253
20
-8.6493697726460912
30
0
10
25.746907478413654
20
-8.6128040413943836
30
0
0
LINE
5
241
100
AcDbEntity
8
0
100
AcDbLine
10
25.746907478413654
20
-8.6128040413943854
30
0
11
20.314576324765309
21
-7.7527004214150246
31
0
0
SPLINE
5
242
100
AcDbEntity
8
0
100
AcDbSpline
70
0
71
3
72
8
73
4
74
0
42
0.000000001
43
0.0000000001
44
0.0000000001
40
0
40
0
40
0
40
0
40
0.46213448866135881
40
0.46213448866135881
40
0.46213448866135881
40
0.46213448866135881
10
20.314576324765309
20
-7.7527004214150246
30
0
10
20.083630707957667
20
-7.7161346901633099
30
0
10
19.871899236031489
20
-7.6017254142132522
30
0
10
19.722884182423449
20
-7.461468373086757
30
0
0
ARC
5
243
100
AcDbEntity
8
0
100
AcDbCircle
10
20.489674428102333
20
-6.6467977608434072
30
0
40
1.1187741002191813
210
0
220
0
230
1
100
AcDbArc
50
177.72355730136741
51
226.73415937222936
0
SPLINE
5
244
100
AcDbEntity
8
0
100
AcDbSpline
70
0
71
3
72
8
73
4
74
0
42
0.000000001
43
0.0000000001
44
0.0000000001
40
0.62617353933554487
40
0.62617353933554487
40
0.62617353933554487
40
0.62617353933554487
40
0.74377004690454529
40
0.74377004690454529
40
0.74377004690454529
40
0.74377004690454529
10
19.371783252158515
20
-6.6023589707136825
30
0
10
19.373696604818353
20
-6.5542271460475066
30
0
10
19.378485398370906
20
-6.5081283533510961
30
0
10
19.385468418277686
20
-6.4640242759992637
30
0
0
LINE
5
245
100
AcDbEntity
8
0
100
AcDbLine
10
19.385468418277686
20
-6.4640242759992645
30
0
11
20.67790685746828
21
1.6988917195829356
31
0
0
SPLINE
5
246
100
AcDbEntity
8
0
100
AcDbSpline
70
0
71
3
72
8
73
4
74
0
42
0.000000001
43
0.0000000001
44
0.0000000001
40
0.64195097067072726
40
0.64195097067072726
40
0.64195097067072726
40
0.64195097067072726
40
1.5707963267948617
40
1.5707963267948617
40
1.5707963267948617
40
1.5707963267948617
10
20.67790685746828
20
1.6988917195829358
30
0
10
20.736733695679682
20
2.0704363317241126
30
0
10
20.930440953393074
20
2.3159523207800938
30
0
10
21.160148225900738
20
2.4892129404766008
30
0
0
LINE
5
247
100
AcDbEntity
8
0
100
AcDbLine
10
-27.830366375616965
20
1.4306925511295856
30
0
11
-26.668237257290997
21
3.0919917760181641
31
0
0
SPLINE
5
248
100
AcDbEntity
8
0
100
AcDbSpline
70
0
71
3
72
11
73
7
74
0
42
0.000000001
43
0.0000000001
44
0.0000000001
40
-1.5707963267948957
40
-1.5707963267948957
40
-1.5707963267948957
40
-1.5707963267948957
40
-0.62160526410323247
40
-0.62160526410323247
40
-0.62160526410323247
40
-0.53242277473876298
40
-0.53242277473876298
40
-0.53242277473876298
40
-0.53242277473876298
10
-26.668237257290997
20
3.0919917760181641
30
0
10
-26.512945829571514
20
3.3139856357657296
30
0
10
-26.311662144304119
20
3.5162654028543194
30
0
10
-25.934780129664588
20
3.6143088923680846
30
0
10
-25.899369686411006
20
3.6235206968239986
30
0
10
-25.86228848509711
20
3.6314157833858722
30
0
10
-25.823470183009096
20
3.6375660929701632
30
0
0
LINE
5
249
100
AcDbEntity
8
0
100
AcDbLine
10
-25.823470183009096
20
3.6375660929701632
30
0
11
-23.474826056970439
21
4.0096815050691124
31
0
0
SPLINE
5
250
100
AcDbEntity
8
0
100
AcDbSpline
70
0
71
3
72
11
73
7
74
0
42
0.000000001
43
0.0000000001
44
0.0000000001
40
0.53242277473873767
40
0.53242277473873767
40
0.53242277473873767
40
0.53242277473873767
40
1.4816138374303933
40
1.4816138374303933
40
1.4816138374303933
40
1.5707963267948926
40
1.5707963267948926
40
1.5707963267948926
40
1.5707963267948926
10
-23.474826056970439
20
4.0096815050691124
30
0
10
-23.061673366645451
20
4.0751407553299837
30
0
10
-22.790558785380767
20
3.9478081699253269
30
0
10
-22.565038451596223
20
3.7962945957916041
30
0
10
-22.543849393292
20
3.7820589395103061
30
0
10
-22.523109452856506
20
3.7672851946508423
30
0
10
-22.502785954001254
20
3.7519592062120792
30
0
0
LINE
5
251
100
AcDbEntity
8
0
100
AcDbLine
10
-22.502785954001254
20
3.7519592062120788
30
0
11
-20.884037274124548
21
2.5312578038724274
31
0
0
SPLINE
5
252
100
AcDbEntity
8
0
100
AcDbSpline
70
0
71
3
72
8
73
4
74
0
42
0.000000001
43
0.0000000001
44
0.0000000001
40
-1.5707963267948795
40
-1.5707963267948795
40
-1.5707963267948795
40
-1.5707963267948795
40
-0.64195097067072637
40
-0.64195097067072637
40
-0.64195097067072637
40
-0.64195097067072637
10
-20.884037274124548
20
2.5312578038724274
30
0
10
-20.654311763222331
20
2.3580213671125878
30
0
10
-20.460578660374487
20
2.1125257715636412
30
0
10
-20.401712708868413
20
1.7409873543597421
30
0
0
LINE
5
253
100
AcDbEntity
8
0
100
AcDbLine
10
-20.401712708868416
20
1.7409873543597423
30
0
11
-19.108414942080966
21
-6.4217925371019362
31
0
0
SPLINE
5
254
100
AcDbEntity
8
0
100
AcDbSpline
70
0
71
3
72
8
73
4
74
0
42
0.000000001
43
0.0000000001
44
0.0000000001
40
-0.74377004690457738
40
-0.74377004690457738
40
-0.74377004690457738
40
-0.74377004690457738
40
-0.62617353933554731
40
-0.62617353933554731
40
-0.62617353933554731
40
-0.62617353933554731
10
-19.108414942080966
20
-6.4217925371019371
30
0
10
-19.101427279243786
20
-6.4658958790858465
30
0
10
-19.09663363275898
20
-6.5119941673961019
30
0
10
-19.094715213127561
20
-6.5601257903711829
30
0
0
ARC
5
255
100
AcDbEntity
8
0
100
AcDbCircle
10
-20.212601704671588
20
-6.6046822640265272
30
0
40
1.118774100219172
210
0
220
0
230
1
100
AcDbArc
50
-46.728127672899006
51
2.2824743979631483
0
SPLINE
5
256
100
AcDbEntity
8
0
100
AcDbSpline
70
0
71
3
72
8
73
4
74
0
42
0.000000001
43
0.0000000001
44
0.0000000001
40
-0.46213448866136592
40
-0.46213448866136592
40
-0.46213448866136592
40
-0.46213448866136592
40
0
40
0
40
0
40
0
10
-19.445725700412012
20
-7.4192721494364111
30
0
10
-19.594725987913073
20
-7.5595448770493325
30
0
10
-19.80644541445686
20
-7.673976441975344
30
0
10
-20.037387180600099
20
-7.7105664853652716
30
0
0
LINE
5
257
100
AcDbEntity
8
0
100
AcDbLine
10
-20.037387180600096
20
-7.7105664853652698
30
0
11
-25.469627758447558
21
-8.5712419784446556
31
0
0
SPLINE
5
258
100
AcDbEntity
8
0
100
AcDbSpline
70
0
71
3
72
8
73
4
74
0
42
0.000000001
43
0.0000000001
44
0.0000000001
40
0
40
0
40
0
40
0
40
0.46213448866132451
40
0.46213448866132451
40
0.46213448866132451
40
0.46213448866132451
10
-25.469627758447558
20
-8.5712419784446556
30
0
10
-25.700569524590779
20
-8.6078320218345787
30
0
10
-25.937292531253622
20
-8.5644509574868835
30
0
10
-26.122356078302445
20
-8.4771067685498451
30
0
0
ARC
5
259
100
AcDbEntity
8
0
100
AcDbCircle
10
-25.644842282519082
20
-7.4653577571059371
30
0
40
1.1187741002191489
210
0
220
0
230
1
100
AcDbArc
50
195.72355730136667
51
244.73415937223194
0
SPLINE
5
260
100
AcDbEntity
8
0
100
AcDbSpline
70
0
71
3
72
8
73
4
74
0
42
0.000000001
43
0.0000000001
44
0.0000000001
40
0.62617353933554021
40
0.62617353933554021
40
0.62617353933554021
40
0.62617353933554021
40
0.74377004690453541
40
0.74377004690453541
40
0.74377004690453541
40
0.74377004690453541
10
-26.721752311268823
20
-7.7685413274052024
30
0
10
-26.734806156545837
20
-7.7221739834271395
30
0
10
-26.744497053595847
20
-7.6768516076495885
30
0
10
-26.751484716433026
20
-7.6327482656656906
30
0
0
LINE
5
261
100
AcDbEntity
8
0
100
AcDbLine
10
-26.751484716433023
20
-7.6327482656656898
30
0
11
-28.044782483220473
21
0.5300316257960358
31
0
0
SPLINE
5
262
100
AcDbEntity
8
0
100
AcDbSpline
70
0
71
3
72
8
73
4
74
0
42
0.000000001
43
0.0000000001
44
0.0000000001
40
0.64195097067072893
40
0.64195097067072893
40
0.64195097067072893
40
0.64195097067072893
40
1.5707963267948972
40
1.5707963267948972
40
1.5707963267948972
40
1.5707963267948972
10
-28.044782483220473
20
0.53003162579603624
30
0
10
-28.103648434726551
20
0.90157004299994015
30
0
10
-27.995290498033626
20
1.1949284588134967
30
0
10
-27.830366375616968
20
1.4306925511295854
30
0
0
LINE
5
263
100
AcDbEntity
8
0
100
AcDbLine
10
-60.158241224004314
20
-17.405152314146722
30
0
11
-63.120414700628871
21
-9.6896404734188852
31
0
0
SPLINE
5
264
100
AcDbEntity
8
0
100
AcDbSpline
70
0
71
3
72
8
73
4
74
0
42
0.000000001
43
0.0000000001
44
0.0000000001
40
0.64195097067072315
40
0.64195097067072315
40
0.64195097067072315
40
0.64195097067072315
40
1.5707963267948963
40
1.5707963267948963
40
1.5707963267948963
40
1.5707963267948963
10
-63.120414700628871
20
-9.6896404734188852
30
0
10
-63.255241470384078
20
-9.3384599815596747
30
0
10
-63.210244058834832
20
-9.0289832691452219
30
0
10
-63.097942035257404
20
-8.7640815347587715
30
0
0
LINE
5
265
100
AcDbEntity
8
0
100
AcDbLine
10
-63.097942035257397
20
-8.7640815347587733
30
0
11
-62.306611757224779
21
-6.8974654538933748
31
0
0
SPLINE
5
266
100
AcDbEntity
8
0
100
AcDbSpline
70
0
71
3
72
11
73
7
74
0
42
0.000000001
43
0.0000000001
44
0.0000000001
40
-1.5707963267948972
40
-1.5707963267948972
40
-1.5707963267948972
40
-1.5707963267948972
40
-0.62160526410324024
40
-0.62160526410324024
40
-0.62160526410324024
40
-0.53242277473874
40
-0.53242277473874
40
-0.53242277473874
40
-0.53242277473874
10
-62.306611757224779
20
-6.8974654538933748
30
0
10
-62.200868938517715
20
-6.6480357892969968
30
0
10
-62.046040113100176
20
-6.4083270891043274
30
0
10
-61.697778262399282
20
-6.2340679081663586
30
0
10
-61.665056864129767
20
-6.2176951586099127
30
0
10
-61.630427456828471
20
-6.2022629833691001
30
0
10
-61.593736149041227
20
-6.1881762939836573
30
0
0
LINE
5
267
100
AcDbEntity
8
0
100
AcDbLine
10
-61.593736149041227
20
-6.1881762939836573
30
0
11
-59.373782676687682
21
-5.3358819250690548
31
0
0
SPLINE
5
268
100
AcDbEntity
8
0
100
AcDbSpline
70
0
71
3
72
11
73
7
74
0
42
0.000000001
43
0.0000000001
44
0.0000000001
40
0.5324227747388689
40
0.5324227747388689
40
0.5324227747388689
40
0.5324227747388689
40
1.4816138374305705
40
1.4816138374305705
40
1.4816138374305705
40
1.5707963267949336
40
1.5707963267949336
40
1.5707963267949336
40
1.5707963267949336
10
-59.373782676687682
20
-5.3358819250690548
30
0
10
-58.983268107310977
20
-5.1859538420692424
30
0
10
-58.69160409699532
20
-5.2541360139819702
30
0
10
-58.439510480207304
20
-5.355450339088577
30
0
10
-58.41582469429791
20
-5.3649694591861206
30
0
10
-58.392466337048162
20
-5.3751082861908408
30
0
10
-58.369400503234658
20
-5.3858738720007473
30
0
0
LINE
5
269
100
AcDbEntity
8
0
100
AcDbLine
10
-58.369400503234658
20
-5.3858738720007473
30
0
11
-56.53222727327821
21
-6.2433432448694779
31
0
0
SPLINE
5
270
100
AcDbEntity
8
0
100
AcDbSpline
70
0
71
3
72
8
73
4
74
0
42
0.000000001
43
0.0000000001
44
0.0000000001
40
-1.570796326794855
40
-1.570796326794855
40
-1.570796326794855
40
-1.570796326794855
40
-0.64195097067071638
40
-0.64195097067071638
40
-0.64195097067071638
40
-0.64195097067071638
10
-56.53222727327821
20
-6.2433432448694779
30
0
10
-56.271503935483878
20
-6.3650314304501387
30
0
10
-56.030962961391651
20
-6.5648829812465914
30
0
10
-55.896136191636465
20
-6.9160634731057957
30
0
0
LINE
5
271
100
AcDbEntity
8
0
100
AcDbLine
10
-55.896136191636465
20
-6.9160634731057948
30
0
11
-52.933962715011951
21
-14.631575313833526
31
0
0
SPLINE
5
272
100
AcDbEntity
8
0
100
AcDbSpline
70
0
71
3
72
8
73
4
74
0
42
0.000000001
43
0.0000000001
44
0.0000000001
40
-0.74377004690461723
40
-0.74377004690461723
40
-0.74377004690461723
40
-0.74377004690461723
40
-0.62617353933555697
40
-0.62617353933555697
40
-0.62617353933555697
40
-0.62617353933555697
10
-52.933962715011951
20
-14.631575313833526
30
0
10
-52.917958148970435
20
-14.673262075184097
30
0
10
-52.903684882096158
20
-14.717356350146883
30
0
10
-52.891801257421925
20
-14.764037319810125
30
0
0
ARC
5
273
100
AcDbEntity
8
0
100
AcDbCircle
10
-53.975995435243945
20
-15.040041798212513
30
0
40
1.1187741002192304
210
0
220
0
230
1
100
AcDbArc
50
-34.728127672901685
51
14.282474397962371
0
SPLINE
5
274
100
AcDbEntity
8
0
100
AcDbSpline
70
0
71
3
72
8
73
4
74
0
42
0.000000001
43
0.0000000001
44
0.0000000001
40
-0.46213448866130646
40
-0.46213448866130646
40
-0.46213448866130646
40
-0.46213448866130646
40
-3.3503535296062038e-16
40
-3.3503535296062038e-16
40
-3.3503535296062038e-16
40
-3.3503535296062038e-16
10
-53.056514751218486
20
-15.677388453515118
30
0
10
-53.173094684972675
20
-15.845574787184734
30
0
10
-53.356395873928506
20
-16.001524691816982
30
0
10
-53.574683510602419
20
-16.085330648048853
30
0
0
LINE
5
275
100
AcDbEntity
8
0
100
AcDbLine
10
-53.574683510602419
20
-16.085330648048853
30
0
11
-58.709272101421192
21
-18.056624640083946
31
0
0
SPLINE
5
276
100
AcDbEntity
8
0
100
AcDbSpline
70
0
71
3
72
8
73
4
74
0
42
0.000000001
43
0.0000000001
44
0.0000000001
40
0
40
0
40
0
40
0
40
0.46213448866132933
40
0.46213448866132933
40
0.46213448866132933
40
0.46213448866132933
10
-58.709272101421192
20
-18.056624640083946
30
0
10
-58.927559738095113
20
-18.140430596315824
30
0
10
-59.168129209538868
20
-18.147214992877583
30
0
10
-59.36730855207297
20
-18.10025635900643
30
0
0
ARC
5
277
100
AcDbEntity
8
0
100
AcDbCircle
10
-59.110584026062668
20
-17.011335790247617
30
0
40
1.1187741002191736
210
0
220
0
230
1
100
AcDbArc
50
207.72355730137696
51
256.73415937223251
0
SPLINE
5
278
100
AcDbEntity
8
0
100
AcDbSpline
70
0
71
3
72
8
73
4
74
0
42
0.000000001
43
0.0000000001
44
0.0000000001
40
0.62617353933539399
40
0.62617353933539399
40
0.62617353933539399
40
0.62617353933539399
40
0.74377004690452619
40
0.74377004690452619
40
0.74377004690452619
40
0.74377004690452619
10
-60.100925578161238
20
-17.531796257053902
30
0
10
-60.123334478484544
20
-17.489156197832529
30
0
10
-60.142236657962791
20
-17.446839075497319
30
0
10
-60.158241224004314
20
-17.405152314146722
30
0
0
LINE
5
279
100
AcDbEntity
8
0
100
AcDbLine
10
-70.590772658828783
20
-22.323217170233654
30
0
11
-74.21412533622717
21
-14.895235610939077
31
0
0
SPLINE
5
280
100
AcDbEntity
8
0
100
AcDbSpline
70
0
71
3
72
8
73
4
74
0
42
0.000000001
43
0.0000000001
44
0.0000000001
40
0.64195097067071805
40
0.64195097067071805
40
0.64195097067071805
40
0.64195097067071805
40
1.5707963267949279
40
1.5707963267949279
40
1.5707963267949279
40
1.5707963267949279
10
-74.21412533622717
20
-14.895235610939077
30
0
10
-74.379046446024631
20
-14.557142394135949
30
0
10
-74.361192935945013
20
-14.244921551220497
30
0
10
-74.272405962887788
20
-13.971240081632445
30
0
0
LINE
5
281
100
AcDbEntity
8
0
100
AcDbLine
10
-74.272405962887788
20
-13.971240081632445
30
0
11
-73.646773246424772
21
-12.042758060360947
31
0
0
SPLINE
5
282
100
AcDbEntity
8
0
100
AcDbSpline
70
0
71
3
72
11
73
7
74
0
42
0.000000001
43
0.0000000001
44
0.0000000001
40
-1.5707963267949223
40
-1.5707963267949223
40
-1.5707963267949223
40
-1.5707963267949223
40
-0.62160526410326911
40
-0.62160526410326911
40
-0.62160526410326911
40
-0.53242277473870558
40
-0.53242277473870558
40
-0.53242277473870558
40
-0.53242277473870558
10
-73.646773246424772
20
-12.042758060360947
30
0
10
-73.563172038748718
20
-11.785061457038587
30
0
10
-73.429824373564372
20
-11.532770699542175
30
0
10
-73.098075452693777
20
-11.328821607129445
30
0
10
-73.066905548371921
20
-11.309659303058195
30
0
10
-73.033752919115628
20
-11.291267700189005
30
0
10
-72.99842896870814
20
-11.274036756726971
30
0
0
LINE
5
283
100
AcDbEntity
8
0
100
AcDbLine
10
-72.99842896870814
20
-11.274036756726971
30
0
11
-70.861205438301823
21
-10.231503931452705
31
0
0
SPLINE
5
284
100
AcDbEntity
8
0
100
AcDbSpline
70
0
71
3
72
11
73
7
74
0
42
0.000000001
43
0.0000000001
44
0.0000000001
40
0.53242277473868327
40
0.53242277473868327
40
0.53242277473868327
40
0.53242277473868327
40
1.4816138374303354
40
1.4816138374303354
40
1.4816138374303354
40
1.5707963267949445
40
1.5707963267949445
40
1.5707963267949445
40
1.5707963267949445
10
-70.861205438301823
20
-10.231503931452705
30
0
10
-70.485243988193758
20
-10.048110782725326
30
0
10
-70.188747379657897
20
-10.090613307437312
30
0
10
-69.928782929935252
20
-10.169570694536114
30
0
10
-69.904357629609706
20
-10.176989239244307
30
0
10
-69.880204500963117
20
-10.185053669975836
30
0
10
-69.856288156983595
20
-10.193767969603432
30
0
0
LINE
5
285
100
AcDbEntity
8
0
100
AcDbLine
10
-69.856288156983595
20
-10.193767969603428
30
0
11
-67.951372545749194
21
-10.887854215218333
31
0
0
SPLINE
5
286
100
AcDbEntity
8
0
100
AcDbSpline
70
0
71
3
72
8
73
4
74
0
42
0.000000001
43
0.0000000001
44
0.0000000001
40
-1.5707963267948877
40
-1.5707963267948877
40
-1.5707963267948877
40
-1.5707963267948877
40
-0.64195097067076634
40
-0.64195097067076634
40
-0.64195097067076634
40
-0.64195097067076634
10
-67.951372545749194
20
-10.887854215218333
30
0
10
-67.681035514771807
20
-10.986355804357071
30
0
10
-67.423991661358372
20
-11.164482332407646
30
0
10
-67.259070551560939
20
-11.502575549210732
30
0
0
LINE
5
287
100
AcDbEntity
8
0
100
AcDbLine
10
-67.259070551560939
20
-11.502575549210729
30
0
11
-63.635717874162559
21
-18.930557108505283
31
0
0
SPLINE
5
288
100
AcDbEntity
8
0
100
AcDbSpline
70
0
71
3
72
8
73
4
74
0
42
0.000000001
43
0.0000000001
44
0.0000000001
40
-0.74377004690455029
40
-0.74377004690455029
40
-0.74377004690455029
40
-0.74377004690455029
40
-0.62617353933555042
40
-0.62617353933555042
40
-0.62617353933555042
40
-0.62617353933555042
10
-63.635717874162559
20
-18.930557108505283
30
0
10
-63.616140969678497
20
-18.970690349302615
30
0
10
-63.598078947608613
20
-19.013372835060856
30
0
10
-63.582172029130852
20
-19.058840443406122
30
0
0
ARC
5
289
100
AcDbEntity
8
0
100
AcDbCircle
10
-64.638185145462174
20
-19.428288390290927
30
0
40
1.1187741002191529
210
0
220
0
230
1
100
AcDbArc
50
-29.72812767289874
51
19.282474397963941
0
SPLINE
5
290
100
AcDbEntity
8
0
100
AcDbSpline
70
0
71
3
72
8
73
4
74
0
42
0.000000001
43
0.0000000001
44
0.0000000001
40
-0.46213448866136586
40
-0.46213448866136586
40
-0.46213448866136586
40
-0.46213448866136586
40
0
40
0
40
0
40
0
10
-63.666654941907638
20
-19.98307172719144
30
0
10
-63.768132848986461
20
-20.160778671800447
30
0
10
-63.937144591808554
20
-20.332110891233015
30
0
10
-64.14729740776005
20
-20.434622961606674
30
0
0
LINE
5
291
100
AcDbEntity
8
0
100
AcDbLine
10
-64.14729740776005
20
-20.434622961606674
30
0
11
-69.090537746766259
21
-22.84592446718861
31
0
0
SPLINE
5
292
100
AcDbEntity
8
0
100
AcDbSpline
70
0
71
3
72
8
73
4
74
0
42
0.000000001
43
0.0000000001
44
0.0000000001
40
0
40
0
40
0
40
0
40
0.46213448866123913
40
0.46213448866123913
40
0.46213448866123913
40
0.46213448866123913
10
-69.090537746766259
20
-22.84592446718861
30
0
10
-69.300690562717705
20
-22.948436537562241
30
0
10
-69.539753295571217
20
-22.976162128412923
30
0
10
-69.742267415186518
20
-22.946741809859425
30
0
0
ARC
5
293
100
AcDbEntity
8
0
100
AcDbCircle
10
-69.581425484468426
20
-21.839589895872837
30
0
40
1.1187741002191953
210
0
220
0
230
1
100
AcDbArc
50
212.7235573013773
51
261.73415937223774
0
SPLINE
5
294
100
AcDbEntity
8
0
100
AcDbSpline
70
0
71
3
72
8
73
4
74
0
42
0.000000001
43
0.0000000001
44
0.0000000001
40
0.62617353933540587
40
0.62617353933540587
40
0.62617353933540587
40
0.62617353933540587
40
0.74377004690453818
40
0.74377004690453818
40
0.74377004690453818
40
0.74377004690453818
10
-70.522637369413687
20
-22.444383807018639
30
0
10
-70.548677323138065
20
-22.403859070447822
30
0
10
-70.571195754344728
20
-22.363350411030964
30
0
10
-70.590772658828826
20
-22.323217170233587
30
0
0
LINE
5
295
100
AcDbEntity
8
0
100
AcDbLine
10
-15.617731849809369
20
3.1076379269956695
30
0
11
-14.315233215763728
21
4.6613291802972157
31
0
0
SPLINE
5
296
100
AcDbEntity
8
0
100
AcDbSpline
70
0
71
3
72
11
73
7
74
0
42
0.000000001
43
0.0000000001
44
0.0000000001
40
-1.570796326794899
40
-1.570796326794899
40
-1.570796326794899
40
-1.570796326794899
40
-0.62160526410323957
40
-0.62160526410323957
40
-0.62160526410323957
40
-0.53242277473874589
40
-0.53242277473874589
40
-0.53242277473874589
40
-0.53242277473874589
10
-14.315233215763728
20
4.6613291802972157
30
0
10
-14.141184679078764
20
4.8689437466614267
30
0
10
-13.923037095659591
20
5.0529107490738454
30
0
10
-13.539044177719413
20
5.1177337215957319
30
0
10
-13.502965620233704
20
5.1238242488717836
30
0
10
-13.465337421952563
20
5.1284574526032127
30
0
10
-13.4261308004236
20
5.1312011204520216
30
0
0
LINE
5
297
100
AcDbEntity
8
0
100
AcDbLine
10
-13.4261308004236
20
5.1312011204520216
30
0
11
-11.053991979230249
21
5.2972026978083919
31
0
0
SPLINE
5
298
100
AcDbEntity
8
0
100
AcDbSpline
70
0
71
3
72
11
73
7
74
0
42
0.000000001
43
0.0000000001
44
0.0000000001
40
0.53242277473874389
40
0.53242277473874389
40
0.53242277473874389
40
0.53242277473874389
40
1.4816138374304022
40
1.4816138374304022
40
1.4816138374304022
40
1.570796326794897
40
1.570796326794897
40
1.570796326794897
40
1.570796326794897
10
-11.053991979230249
20
5.2972026978083919
30
0
10
-10.636706310049963
20
5.3264042262658631
30
0
10
-10.377721167675642
20
5.1759269870915849
30
0
10
-10.166264284937576
20
5.0053345756549463
30
0
10
-10.146396576594052
20
4.9893063422290336
30
0
10
-10.127023174599866
20
4.972781211015878
30
0
10
-10.108112760699315
20
4.9557422329522076
30
0
0
LINE
5
299
100
AcDbEntity
8
0
100
AcDbLine
10
-10.108112760699315
20
4.9557422329522076
30
0
11
-8.6019150456571563
21
3.5986027244718537
31
0
0
SPLINE
5
300
100
AcDbEntity
8
0
100
AcDbSpline
70
0
71
3
72
8
73
4
74
0
42
0.000000001
43
0.0000000001
44
0.0000000001
40
-1.5707963267948883
40
-1.5707963267948883
40
-1.5707963267948883
40
-1.5707963267948883
40
-0.64195097067073559
40
-0.64195097067073559
40
-0.64195097067073559
40
-0.64195097067073559
10
-8.6019150456571563
20
3.5986027244718537
30
0
10
-8.3881622599967116
20
3.4060036071246289
30
0
10
-8.21656272106617
20
3.1445572439603824
30
0
10
-8.1903024789883876
20
2.7693021368784021
30
0
0
LINE
5
301
100
AcDbEntity
8
0
100
AcDbLine
10
-8.1903024789883876
20
2.7693021368784017
30
0
11
-7.6133592449868246
21
-5.4751342401439178
31
0
0
SPLINE
5
302
100
AcDbEntity
8
0
100
AcDbSpline
70
0
71
3
72
8
73
4
74
0
42
0.000000001
43
0.0000000001
44
0.0000000001
40
-0.74377004690455617
40
-0.74377004690455617
40
-0.74377004690455617
40
-0.74377004690455617
40
-0.62617353933548947
40
-0.62617353933548947
40
-0.62617353933548947
40
-0.62617353933548947
10
-7.6133592449868246
20
-5.4751342401439187
30
0
10
-7.6102420318446331
20
-5.5196787705410753
30
0
10
-7.6094843571890225
20
-5.5660194347667247
30
0
10
-7.611768185073533
20
-5.6141351036729459
30
0
0
ARC
5
303
100
AcDbEntity
8
0
100
AcDbCircle
10
-8.7292841335737243
20
-5.5610917990159026
30
0
40
1.1187741002191744
210
0
220
0
230
1
100
AcDbArc
50
308.27187232709582
51
357.28247439795962
0
SPLINE
5
304
100
AcDbEntity
8
0
100
AcDbSpline
70
0
71
3
72
8
73
4
74
0
42
0.000000001
43
0.0000000001
44
0.0000000001
40
-0.46213448866128543
40
-0.46213448866128543
40
-0.46213448866128543
40
-0.46213448866128543
40
0
40
0
40
0
40
0
10
-8.0363225105342604
20
-6.4394195717270577
30
0
10
-8.1969813807192971
20
-6.5661722885351157
30
0
10
-8.4178685189601072
20
-6.6617158429341856
30
0
10
-8.651120514368726
20
-6.6780387490025053
30
0
0
LINE
5
305
100
AcDbEntity
8
0
100
AcDbLine
10
-8.651120514368726
20
-6.6780387490025035
30
0
11
-14.137702588643251
21
-7.0619881496394239
31
0
0
SPLINE
5
306
100
AcDbEntity
8
0
100
AcDbSpline
70
0
71
3
72
8
73
4
74
0
42
0.000000001
43
0.0000000001
44
0.0000000001
40
0
40
0
40
0
40
0
40
0.46213448866126977
40
0.46213448866126977
40
0.46213448866126977
40
0.46213448866126977
10
-14.137702588643251
20
-7.0619881496394239
30
0
10
-14.37095458405186
20
-7.0783110557077418
30
0
10
-14.602995879321286
20
-7.0144632999358523
30
0
10
-14.779742656039867
20
-6.9113221311091158
30
0
0
ARC
5
307
100
AcDbEntity
8
0
100
AcDbCircle
10
-14.215866207848254
20
-5.9450411996528203
30
0
40
1.1187741002191811
210
0
220
0
230
1
100
AcDbArc
50
190.72355730137079
51
239.7341593722355
0
SPLINE
5
308
100
AcDbEntity
8
0
100
AcDbSpline
70
0
71
3
72
8
73
4
74
0
42
0.000000001
43
0.0000000001
44
0.0000000001
40
0.62617353933548925
40
0.62617353933548925
40
0.62617353933548925
40
0.62617353933548925
40
0.74377004690456039
40
0.74377004690456039
40
0.74377004690456039
40
0.74377004690456039
10
-15.315102458068903
20
-6.1532121715054746
30
0
10
-15.324065449219939
20
-6.1058835516890699
30
0
10
-15.329769364156935
20
-6.059889023904236
30
0
10
-15.332886577299128
20
-6.0153444935070777
30
0
0
LINE
5
309
100
AcDbEntity
8
0
100
AcDbLine
10
-15.332886577299128
20
-6.0153444935070777
30
0
11
-15.909829811300686
21
2.2290918835152453
31
0
0
SPLINE
5
310
100
AcDbEntity
8
0
100
AcDbSpline
70
0
71
3
72
8
73
4
74
0
42
0.000000001
43
0.0000000001
44
0.0000000001
40
0.64195097067074103
40
0.64195097067074103
40
0.64195097067074103
40
0.64195097067074103
40
1.5707963267948957
40
1.5707963267948957
40
1.5707963267948957
40
1.5707963267948957
10
-15.909829811300686
20
2.2290918835152449
30
0
10
-15.936090053378466
20
2.6043469905972252
30
0
10
-15.802576580727305
20
2.8871450726162018
30
0
10
-15.617731849809367
20
3.10763792699567
30
0
0
LINE
5
311
100
AcDbEntity
8
0
100
AcDbLine
10
33.248114169560765
20
0.43613244738604923
30
0
11
34.947955168274568
21
1.5411210361815428
31
0
0
SPLINE
5
312
100
AcDbEntity
8
0
100
AcDbSpline
70
0
71
3
72
11
73
7
74
0
42
0.000000001
43
0.0000000001
44
0.0000000001
40
-1.5707963267949032
40
-1.5707963267949032
40
-1.5707963267949032
40
-1.5707963267949032
40
-0.62160526410323302
40
-0.62160526410323302
40
-0.62160526410323302
40
-0.53242277473878019
40
-0.53242277473878019
40
-0.53242277473878019
40
-0.53242277473878019
10
34.947955168274568
20
1.5411210361815428
30
0
10
35.175099236367984
20
1.6887769660277625
30
0
10
35.437501554001628
20
1.8009253045296167
30
0
10
35.823668210665375
20
1.7506471574283256
30
0
10
35.859951004619582
20
1.7459232082727048
30
0
10
35.897289647267428
20
1.7393525425593157
30
0
10
35.93558529674695
20
1.7305134183990787
30
0
0
LINE
5
313
100
AcDbEntity
8
0
100
AcDbLine
10
35.93558529674695
20
1.7305134183990787
30
0
11
38.252607097417126
21
1.1957152453310405
31
0
0
SPLINE
5
314
100
AcDbEntity
8
0
100
AcDbSpline
70
0
71
3
72
11
73
7
74
0
42
0.000000001
43
0.0000000001
44
0.0000000001
40
0.5324227747387702
40
0.5324227747387702
40
0.5324227747387702
40
0.5324227747387702
40
1.481613837430436
40
1.481613837430436
40
1.481613837430436
40
1.5707963267948968
40
1.5707963267948968
40
1.5707963267948968
40
1.5707963267948968
10
38.252607097417126
20
1.1957152453310405
30
0
10
38.660197068105063
20
1.1016382834216905
30
0
10
38.863870504542028
20
0.88201625636129877
30
0
10
39.016211333041063
20
0.65705391269174984
30
0
10
39.030524715089626
20
0.63591728107954215
30
0
10
39.044220110772287
20
0.61444998494017788
30
0
10
39.057322514459401
20
0.59262665923203084
30
0
0
LINE
5
315
100
AcDbEntity
8
0
100
AcDbLine
10
39.057322514459393
20
0.59262665923203084
30
0
11
40.100917361133895
21
-1.1455819008294363
31
0
0
SPLINE
5
316
100
AcDbEntity
8
0
100
AcDbSpline
70
0
71
3
72
8
73
4
74
0
42
0.000000001
43
0.0000000001
44
0.0000000001
40
-1.5707963267948866
40
-1.5707963267948866
40
-1.5707963267948866
40
-1.5707963267948866
40
-0.64195097067074669
40
-0.64195097067074669
40
-0.64195097067074669
40
-0.64195097067074669
10
40.100917361133895
20
-1.1455819008294363
30
0
10
40.249019634394429
20
-1.392260619075645
30
0
10
40.336681570702872
20
-1.6924538693256057
30
0
10
40.252080389731127
20
-2.0589898646702283
30
0
0
LINE
5
317
100
AcDbEntity
8
0
100
AcDbLine
10
40.252080389731127
20
-2.0589898646702283
30
0
11
38.393374030299363
21
-10.111865459104592
31
0
0
SPLINE
5
318
100
AcDbEntity
8
0
100
AcDbSpline
70
0
71
3
72
8
73
4
74
0
42
0.000000001
43
0.0000000001
44
0.0000000001
40
-0.74377004690459136
40
-0.74377004690459136
40
-0.74377004690459136
40
-0.74377004690459136
40
-0.62617353933548958
40
-0.62617353933548958
40
-0.62617353933548958
40
-0.62617353933548958
10
38.393374030299363
20
-10.111865459104592
30
0
10
38.383331475764301
20
-10.155374990295911
30
0
10
38.370507344643293
20
-10.199912310520087
30
0
10
38.354255649033547
20
-10.245257826879575
30
0
0
ARC
5
319
100
AcDbEntity
8
0
100
AcDbCircle
10
37.301078194024996
20
-9.8678022194462187
30
0
40
1.1187741002191509
210
0
220
0
230
1
100
AcDbArc
50
291.27187232709252
51
340.28247439796019
0
SPLINE
5
320
100
AcDbEntity
8
0
100
AcDbSpline
70
0
71
3
72
8
73
4
74
0
42
0.000000001
43
0.0000000001
44
0.0000000001
40
-0.46213448866124474
40
-0.46213448866124474
40
-0.46213448866124474
40
-0.46213448866124474
40
0
40
0
40
0
40
0
10
37.706962501624545
20
-10.910353616819799
30
0
10
37.516264752087551
20
-10.984595734979738
30
0
10
37.277095099381889
20
-11.01138334129438
30
0
10
37.049262750961553
20
-10.958796730471059
30
0
0
LINE
5
321
100
AcDbEntity
8
0
100
AcDbLine
10
37.049262750961553
20
-10.958796730471059
30
0
11
31.6901622785598
21
-9.7218480141924513
31
0
0
SPLINE
5
322
100
AcDbEntity
8
0
100
AcDbSpline
70
0
71
3
72
8
73
4
74
0
42
0.000000001
43
0.0000000001
44
0.0000000001
40
0
40
0
40
0
40
0
40
0.46213448866126833
40
0.46213448866126833
40
0.46213448866126833
40
0.46213448866126833
10
31.6901622785598
20
-9.7218480141924513
30
0
10
31.462329930139457
20
-9.6692614033691271
30
0
10
31.259095013091233
20
-9.5403611818029077
30
0
10
31.120226789271083
20
-9.3900510351048521
30
0
0
ARC
5
323
100
AcDbEntity
8
0
100
AcDbCircle
10
31.941977721623228
20
-8.6308535031675842
30
0
40
1.1187741002191915
210
0
220
0
230
1
100
AcDbArc
50
173.72355730136724
51
222.73415937223527
0
SPLINE
5
324
100
AcDbEntity
8
0
100
AcDbSpline
70
0
71
3
72
8
73
4
74
0
42
0.000000001
43
0.0000000001
44
0.0000000001
40
0.62617353933555087
40
0.62617353933555087
40
0.62617353933555087
40
0.62617353933555087
40
0.74377004690453696
40
0.74377004690453696
40
0.74377004690453696
40
0.74377004690453696
10
30.8299095656959
20
-8.5085428172336126
30
0
10
30.835175763888401
20
-8.4606617080078124
30
0
10
30.84316858140291
20
-8.4150092590052132
30
0
10
30.853211135937965
20
-8.3714997278139336
30
0
0
LINE
5
325
100
AcDbEntity
8
0
100
AcDbLine
10
30.853211135937965
20
-8.3714997278139336
30
0
11
32.711917495369732
21
-0.31862413337955364
31
0
0
SPLINE
5
326
100
AcDbEntity
8
0
100
AcDbSpline
70
0
71
3
72
8
73
4
74
0
42
0.000000001
43
0.0000000001
44
0.0000000001
40
0.64195097067071161
40
0.64195097067071161
40
0.64195097067071161
40
0.64195097067071161
40
1.570796326794863
40
1.570796326794863
40
1.570796326794863
40
1.570796326794863
10
32.711917495369732
20
-0.31862413337955375
30
0
10
32.796518676341478
20
0.047911861965081529
30
0
10
33.006880402555126
20
0.27931745117458728
30
0
10
33.248114169560765
20
0.43613244738604923
30
0
0
LINE
5
327
100
AcDbEntity
8
0
100
AcDbLine
10
79.145374851679421
20
-16.538861155513533
30
0
11
81.094008280535718
21
-15.979140723315071
31
0
0
SPLINE
5
328
100
AcDbEntity
8
0
100
AcDbSpline
70
0
71
3
72
11
73
7
74
0
42
0.000000001
43
0.0000000001
44
0.0000000001
40
-1.5707963267948539
40
-1.5707963267948539
40
-1.5707963267948539
40
-1.5707963267948539
40
-0.62160526410322647
40
-0.62160526410322647
40
-0.62160526410322647
40
-0.53242277473866795
40
-0.53242277473866795
40
-0.53242277473866795
40
-0.53242277473866795
10
81.094008280535718
20
-15.979140723315071
30
0
10
81.354397649063799
20
-15.904347153763128
30
0
10
81.638123234302185
20
-15.873818177210207
30
0
10
81.992716337085739
20
-16.034803612120037
30
0
10
82.026032596436153
20
-16.049929209485001
30
0
10
82.059818641245755
20
-16.067129530959562
30
0
10
82.093856643176778
20
-16.086778991754365
30
0
0
LINE
5
329
100
AcDbEntity
8
0
100
AcDbLine
10
82.093856643176792
20
-16.086778991754365
30
0
11
84.153275757285115
21
-17.275640641881317
31
0
0
SPLINE
5
330
100
AcDbEntity
8
0
100
AcDbSpline
70
0
71
3
72
11
73
7
74
0
42
0.000000001
43
0.0000000001
44
0.0000000001
40
0.53242277473883137
40
0.53242277473883137
40
0.53242277473883137
40
0.53242277473883137
40
1.4816138374305137
40
1.4816138374305137
40
1.4816138374305137
40
1.5707963267948928
40
1.5707963267948928
40
1.5707963267948928
40
1.5707963267948928
10
84.153275757285115
20
-17.275640641881317
30
0
10
84.515550543008231
20
-17.484774662539724
30
0
10
84.646113152489903
20
-17.754348601349633
30
0
10
84.726024787393783
20
-18.014021308240554
30
0
10
84.733532989704173
20
-18.038419197486213
30
0
10
84.740353531762224
20
-18.062952621064522
30
0
10
84.74650289978274
20
-18.087653143332098
30
0
0
LINE
5
331
100
AcDbEntity
8
0
100
AcDbLine
10
84.74650289978274
20
-18.087653143332098
30
0
11
85.23629461508726
21
-20.055027860536612
31
0
0
SPLINE
5
332
100
AcDbEntity
8
0
100
AcDbSpline
70
0
71
3
72
8
73
4
74
0
42
0.000000001
43
0.0000000001
44
0.0000000001
40
-1.5707963267949121
40
-1.5707963267949121
40
-1.5707963267949121
40
-1.5707963267949121
40
-0.64195097067079598
40
-0.64195097067079598
40
-0.64195097067079598
40
-0.64195097067079598
10
85.23629461508726
20
-20.055027860536612
30
0
10
85.305803646002772
20
-20.33422880609681
30
0
10
85.301867160289646
20
-20.646934908776629
30
0
10
85.113797894765156
20
-20.97272003285407
30
0
0
LINE
5
333
100
AcDbEntity
8
0
100
AcDbLine
10
85.113797894765156
20
-20.97272003285407
30
0
11
80.981875197836843
21
-28.130290116104408
31
0
0
SPLINE
5
334
100
AcDbEntity
8
0
100
AcDbSpline
70
0
71
3
72
8
73
4
74
0
42
0.000000001
43
0.0000000001
44
0.0000000001
40
-0.74377004690448156
40
-0.74377004690448156
40
-0.74377004690448156
40
-0.74377004690448156
40
-0.62617353933562037
40
-0.62617353933562037
40
-0.62617353933562037
40
-0.62617353933562037
10
80.981875197836843
20
-28.130290116104408
30
0
10
80.959550499366898
20
-28.168962328923122
30
0
10
80.934265269547126
20
-28.207804166993832
30
0
10
80.905465949823565
20
-28.246416763999875
30
0
0
ARC
5
335
100
AcDbEntity
8
0
100
AcDbCircle
10
80.008664680128163
20
-27.577534883550136
30
0
40
1.1187741002191947
210
0
220
0
230
1
100
AcDbArc
50
274.27187232710889
51
323.28247439796814
0
SPLINE
5
336
100
AcDbEntity
8
0
100
AcDbSpline
70
0
71
3
72
8
73
4
74
0
42
0.000000001
43
0.0000000001
44
0.0000000001
40
-0.4621344886614871
40
-0.4621344886614871
40
-0.4621344886614871
40
-0.4621344886614871
40
-3.3503535296062029e-16
40
-3.3503535296062029e-16
40
-3.3503535296062029e-16
40
-3.3503535296062029e-16
10
80.092001244545514
20
-28.693200830127491
30
0
10
79.887929785063108
20
-28.708444294697756
30
0
10
79.65137877057488
20
-28.66413497093783
30
0
10
79.448876449270188
20
-28.547234412808816
30
0
0
LINE
5
337
100
AcDbEntity
8
0
100
AcDbLine
10
79.448876449270188
20
-28.54723441280882
30
0
11
74.685591984661613
21
-25.797485131652689
31
0
0
SPLINE
5
338
100
AcDbEntity
8
0
100
AcDbSpline
70
0
71
3
72
8
73
4
74
0
42
0.000000001
43
0.0000000001
44
0.0000000001
40
-3.3503535296062029e-16
40
-3.3503535296062029e-16
40
-3.3503535296062029e-16
40
-3.3503535296062029e-16
40
0.46213448866137352
40
0.46213448866137352
40
0.46213448866137352
40
0.46213448866137352
10
74.685591984661613
20
-25.797485131652689
30
0
10
74.483089663356978
20
-25.680584573523699
30
0
10
74.326421923124443
20
-25.49789653943861
30
0
10
74.237568014060329
20
-25.313553091951597
30
0
0
ARC
5
339
100
AcDbEntity
8
0
100
AcDbCircle
10
75.245380215519589
20
-24.827785602394009
30
0
40
1.1187741002191753
210
0
220
0
230
1
100
AcDbArc
50
156.7235573013667
51
205.73415937222839
0
SPLINE
5
340
100
AcDbEntity
8
0
100
AcDbSpline
70
0
71
3
72
8
73
4
74
0
42
0.000000001
43
0.0000000001
44
0.0000000001
40
0.62617353933555731
40
0.62617353933555731
40
0.62617353933555731
40
0.62617353933555731
40
0.74377004690458026
40
0.74377004690458026
40
0.74377004690458026
40
0.74377004690458026
10
74.217664332803579
20
-24.385682049213901
30
0
10
74.236699504709293
20
-24.341432804083421
30
0
10
74.257690558451628
20
-24.300112023663118
30
0
10
74.280015256921601
20
-24.261439810844347
30
0
0
LINE
5
341
100
AcDbEntity
8
0
100
AcDbLine
10
74.280015256921601
20
-24.261439810844347
30
0
11
78.411937953849829
21
-17.103869727594162
31
0
0
SPLINE
5
342
100
AcDbEntity
8
0
100
AcDbSpline
70
0
71
3
72
8
73
4
74
0
42
0.000000001
43
0.0000000001
44
0.0000000001
40
0.64195097067074136
40
0.64195097067074136
40
0.64195097067074136
40
0.64195097067074136
40
1.5707963267949003
40
1.5707963267949003
40
1.5707963267949003
40
1.5707963267949003
10
78.411937953849829
20
-17.103869727594162
30
0
10
78.600007219374362
20
-16.778084603516717
30
0
10
78.868833585224621
20
-16.618294154500749
30
0
10
79.145374851679435
20
-16.538861155513533
30
0
0
CIRCLE
5
343
100
AcDbEntity
8
0
100
AcDbCircle
10
96.000000000001819
20
-16.701705922158268
30
0
40
1.5499999999999934
210
0
220
-0
230
1
0
CIRCLE
5
344
100
AcDbEntity
8
0
100
AcDbCircle
10
-28.82456273670045
20
-129.74252988498293
30
0
40
1.500000000000008
210
0
220
0
230
1
0
CIRCLE
5
345
100
AcDbEntity
8
0
100
AcDbCircle
10
20.976034599275394
20
-191.15147186257613
30
0
40
1.4999999999999947
210
0
220
0
230
1
0
CIRCLE
5
346
100
AcDbEntity
8
0
100
AcDbCircle
10
28.824562736699846
20
-118.83827518288902
30
0
40
1.4999999999999991
210
0
220
0
230
1
0
CIRCLE
5
347
100
AcDbEntity
8
0
100
AcDbCircle
10
-28.824562736699953
20
-118.83827518288902
30
0
40
1.4999999999999991
210
0
220
0
230
1
0
CIRCLE
5
348
100
AcDbEntity
8
0
100
AcDbCircle
10
20.976034599275394
20
-175
30
0
40
1.4999999999999991
210
0
220
0
230
1
0
CIRCLE
5
349
100
AcDbEntity
8
0
100
AcDbCircle
10
28.824562736699846
20
-129.74252988498296
30
0
40
1.4999999999999947
210
0
220
0
230
1
0
LWPOLYLINE
5
350
100
AcDbEntity
8
0
100
AcDbPolyline
90
8
70
1
43
0.0
10
-79.782715667430836
20
-58.614819063183099
42
0.23275551242123976
10
-81.156219253865217
20
-59.379566574928759
42
-0.58100618487184041
10
-95.384121135141967
20
-58.13478718858164
42
0.23275562885202189
10
-96.603961401676756
20
-57.143150762687213
42
-0.87077080072433788
10
-96.048009388222397
20
-50.788592766741317
42
0.23275549819870789
10
-94.674505978348478
20
-50.023845115059551
42
-0.58100617366263385
10
-80.446604240569982
20
-51.268624575857224
42
0.23275566248106114
10
-79.226763801598963
20
-52.260261112701329
42
-0.87077074298593127
0
LWPOLYLINE
5
351
100
AcDbEntity
8
0
100
AcDbPolyline
90
8
70
1
43
0.0
10
96.60396140167677
20
-57.14315076268727
42
0.23275562885202197
10
95.384121135141996
20
-58.134787188581647
42
-0.58100618487184097
10
81.156219253865217
20
-59.379566574928766
42
0.23275551242123943
10
79.782715667430836
20
-58.614819063183113
42
-0.87077074298593371
10
79.226763801598963
20
-52.260261112701315
42
0.23275566248106341
10
80.446604240569982
20
-51.268624575857217
42
-0.58100617366263374
10
94.674505978348535
20
-50.023845115059544
42
0.23275549819870134
10
96.048009388222383
20
-50.78859276674126
42
-0.87077080072434043
0
CIRCLE
5
352
100
AcDbEntity
8
0
100
AcDbCircle
10
-86.956649499277873
20
-43.74356424313801
30
0
40
1.6000000000000014
210
0
220
0
230
1
0
CIRCLE
5
353
100
AcDbEntity
8
0
100
AcDbCircle
10
88.874075839727823
20
-65.659847601156272
30
0
40
1.6000000000000014
210
0
220
0
230
1
0
CIRCLE
5
354
100
AcDbEntity
8
0
100
AcDbCircle
10
86.956649499277873
20
-43.74356424313801
30
0
40
1.6000000000000014
210
0
220
0
230
1
0
CIRCLE
5
355
100
AcDbEntity
8
0
100
AcDbCircle
10
-88.874075839727823
20
-65.659847601156272
30
0
40
1.6000000000000014
210
0
220
0
230
1
0
CIRCLE
5
356
100
AcDbEntity
8
0
100
AcDbCircle
10
-34.176062736699691
20
-178.51687932762064
30
0
40
1.6000000000000014
210
0
220
-0
230
1
0
CIRCLE
5
357
100
AcDbEntity
8
0
100
AcDbCircle
10
34.176062736699294
20
-149.93508625885889
30
0
40
1.6000000000000014
210
0
220
-0
230
1
0
LWPOLYLINE
5
358
100
AcDbEntity
8
0
100
AcDbPolyline
90
8
70
1
43
0.0
10
93.709562736699212
20
-184.41719446473491
10
62.709562736699226
20
-184.41719446473491
10
62.709562736699226
20
-179.25079983676454
10
51.009562736699479
20
-179.25079983676451
10
51.009562736699479
20
-140.94257294132805
10
62.709562736699226
20
-140.94257294132805
10
62.709562736699226
20
-135.77617831335766
10
93.709562736699212
20
-135.77617831335766
0
CIRCLE
5
359
100
AcDbEntity
8
0
100
AcDbCircle
10
34.176062736699691
20
-178.51687932762064
30
0
40
1.6000000000000014
210
0
220
-0
230
1
0
LWPOLYLINE
5
360
100
AcDbEntity
8
0
100
AcDbPolyline
90
4
70
1
43
0.0
10
-48.527562736699224
20
-176.76151535329225
10
-48.527562736698343
20
-152.20781401739225
10
-44.327562736698347
20
-152.20781401739237
10
-44.32756273669925
20
-176.76151535329237
0
CIRCLE
5
361
100
AcDbEntity
8
0
100
AcDbCircle
10
-34.176062736699294
20
-149.93508625885889
30
0
40
1.6000000000000014
210
0
220
-0
230
1
0
LWPOLYLINE
5
362
100
AcDbEntity
8
0
100
AcDbPolyline
90
4
70
1
43
0.0
10
26.224562736699312
20
-152.20781401739362
10
30.424562736699308
20
-152.20781401739359
10
30.424562736699666
20
-176.76151535329359
10
26.224562736699674
20
-176.76151535329365
0
LWPOLYLINE
5
363
100
AcDbEntity
8
0
100
AcDbPolyline
90
4
70
1
43
0.0
10
44.327562736699676
20
-176.76151535329339
10
44.327562736699321
20
-152.20781401739339
10
48.527562736699323
20
-152.20781401739333
10
48.52756273669965
20
-176.7615153532933
0
LWPOLYLINE
5
364
100
AcDbEntity
8
0
100
AcDbPolyline
90
4
70
1
43
0.0
10
-26.224562736698335
20
-152.20781401739305
10
-26.224562736699237
20
-176.76151535329311
10
-30.424562736699233
20
-176.76151535329294
10
-30.424562736698331
20
-152.20781401739291
0
LWPOLYLINE
5
365
100
AcDbEntity
8
0
100
AcDbPolyline
90
8
70
1
43
0.0
10
-62.709562736698857
20
-179.25079983676312
10
-62.70956273669897
20
-184.41719446473348
10
-93.70956273669897
20
-184.41719446473286
10
-93.709562736697876
20
-135.77617831335556
10
-62.70956273669789
20
-135.77617831335627
10
-62.709562736697997
20
-140.94257294132666
10
-51.009562736698257
20
-140.94257294132692
10
-51.00956273669911
20
-179.25079983676338
0
LWPOLYLINE
5
366
100
AcDbEntity
8
0
100
AcDbPolyline
90
34
70
1
43
0.0
10
-99.999999999999972
20
-196.99999999999994
42
0.4142135623731002
10
-96.999999999999957
20
-200
10
96.999999999999957
20
-200
42
0.4142135623731002
10
99.999999999999986
20
-196.99999999999994
10
99.999999999999062
20
-134.22029843388415
42
0.33945425886336905
10
95.923504748063024
20
-128.90770638929436
10
16.369933592174604
20
-107.59139124306081
10
10.000000000000004
20
-100
10
9.9999999999999556
20
-40
10
21.850188310739888
20
-34.654624709152458
10
30.980706016996386
20
-24.04722785385691
10
62.422151654500119
20
-30
10
68.422151654500126
20
-30.000000000000007
10
75.000000000000171
20
-32.394141003283252
10
75.000000000000199
20
-63.602450065469341
10
100.00000000000426
20
-72.701705922146274
10
100.00000000000017
20
-12.701705922146269
10
78.000000000000199
20
-5.9952043329758453e-14
10
30.463658310713704
20
8.9999999999999964
10
-30.463658310713704
20
8.9999999999999964
10
-78.000000000000199
20
-5.9952043329758453e-14
10
-100.00000000000017
20
-12.701705922146269
10
-100.00000000000426
20
-72.701705922146274
10
-75.000000000000199
20
-63.602450065469341
10
-75.000000000000171
20
-32.394141003283252
10
-68.422151654500126
20
-30.000000000000007
10
-62.422151654500126
20
-30
10
-30.980706016996386
20
-24.04722785385691
10
-21.850188310739895
20
-34.654624709152458
10
-10.000000000000044
20
-40
10
-10
20
-100
10
-16.369933592174192
20
-107.59139124306081
10
-95.92350474806301
20
-128.90770638929436
42
0.33945425886336811
10
-99.999999999999062
20
-134.22029843388412
0
ENDSEC
0
SECTION
2
OBJECTS
0
DICTIONARY
5
C
100
AcDbDictionary
3
ACAD_GROUP
350
D
3
ACAD_MLINESTYLE
350
17
0
DICTIONARY
5
D
100
AcDbDictionary
0
DICTIONARY
5
1A
330
C
100
AcDbDictionary
0
DICTIONARY
5
17
100
AcDbDictionary
0
ENDSEC
0
EOF
